<svg id="Camada_1" data-name="Camada 1" xmlns="http://www.w3.org/2000/svg"
xmlns:xlink="http://www.w3.org/1999/xlink" viewBox="0 0 366.99 189.6">
<defs>
<linearGradient id="Gradiente_sem_nome_9"
x1="114.17" y1="26.17" x2="114.17" y2="23.74"
gradientUnits="userSpaceOnUse">
<stop offset="0"
stop-color="#9200fc"/>
<stop offset=".34"
stop-color="#7900d0"/>
<stop offset=".67" stop-color="#5b009d"/>
<stop offset="1" stop-color="#47007a"/>
</linearGradient>
<linearGradient id="Gradiente_sem_nome_9-2" x1="111.02" y1="24.75"
x2="111.02" y2="19.62" xlink:href="#Gradiente_sem_nome_9"/>
<linearGradient id="Gradiente_sem_nome_9-3" x1="109.77" y1="25.61"
x2="109.77" y2="22.96" xlink:href="#Gradiente_sem_nome_9"/>
<linearGradient id="Gradiente_sem_nome_9-4" x1="111.87" y1="25.46"
x2="111.87" y2="22.29" xlink:href="#Gradiente_sem_nome_9"/>
<linearGradient id="Gradiente_sem_nome_9-5" x1="107.58" y1="28.48"
x2="107.58" y2="26.21" xlink:href="#Gradiente_sem_nome_9"/>
<linearGradient id="Gradiente_sem_nome_9-6" x1="107.55" y1="29.23"
x2="107.55" y2="22.86" xlink:href="#Gradiente_sem_nome_9"/>
<linearGradient id="Gradiente_sem_nome_9-7" x1="103.07" y1="285.91"
x2="103.07" y2="-178.47" xlink:href="#Gradiente_sem_nome_9"/>
<linearGradient id="Gradiente_sem_nome_9-8" x1="103.09" y1="6.54"
x2="103.09" y2="6.44" xlink:href="#Gradiente_sem_nome_9"/>
<style>.cls-9{fill:#fff}</style>
</defs>
<path fill="url(#Gradiente_sem_nome_9)"
 d="M113.83 25.67l1.03-.06.35-.55-.53-.38-.64.04-.21.4-.69.3.69.25z"/>
 <path fill="url(#Gradiente_sem_nome_9-2)"
  d="M110.67 23.19l.47-.71.52-.16.39-.65-.42-.07-.63.46-.47.24-.53.58.18.82.49-.51z"/>
  <path fill="url(#Gradiente_sem_nome_9-3)"
  d="M109.38 24.51l.26.41.48.14.04-.43-.12-.38-.57-.27-.09.53z"/>
  <path fill="url(#Gradiente_sem_nome_9-4)"
  d="M110.7 23.92l-.19.39.42.24 1.15.04.35.22.61-.3.19-.58-.53-.41-1.31.33-.69.07z"/>
  <path fill="url(#Gradiente_sem_nome_9-5)"
  d="M107.33 27.49l-.36.47.28.05.69-.11.25-.59-.22-.23-.64.41z"/>
  <path fill="url(#Gradiente_sem_nome_9-6)"
  d="M108.75 25.32l-.34.1-.42-.05-.44.18-.88.89-.54 1.48.36-.09.16-.33 1.02-.98.49-.04.81-.82-.22-.34z"/>
  <path d="M194.06 61.07l.54-.5-.14-2.29-.53-.33-.21-1.14-1.12-3.51v-1.21l-.77-1.45-3-1.35-1.75.07-1.29.54-.87-1.2-1-.2-1-1.14-1.34-.67-.95-.12-2.11-2.17-1.69-2.32-.81-.2-1.15-1.07-1 .08L171 39.3h-1.28l-1.4-1-.88 1h-1.35l-.8-1-.88.41-.41.59-.53-.52-1.3-.93-.19.39-.55-.45-.79.58v.47l-.15-.6-.12-.45-.57-.17.17.47-.27.18-1.38-.54-.46.1-1.17-.23-2.58-1.2-1 .06v.28l.2.53-.21.26-.55-.28-.23.13-.16.38-.88.41-.32.48-.13 1.06-.48-.79-.28-.67-.46.2.07.86-1 1.4v1.08l-.28-1.16.31-1.17-.18-1 .48-1.49.42-.37-.36-.3h-.74l1-1.1-1.33-1.34-.71-1.21-.68.07-1.07-.16-.61.75-.61.3-.3-.67-.46-.26-.19-.67-.54-.44-.75.08-.38-.48-.68-.23-.37.47v-.24l-.22-.31-.33-.67-.58.23-1-.3-1.39-.79-.41-.07-.23.4-.84-.56-.59.06-.15.56h-.41l-.22-.63h-1.08l-.92.49-.51.91.07.51-1 1-1.31.76-1.68 1-.81 1-.5 1.29-.21 1.27-.43.67-.78.8v.52h-1.52v-.12l1.19-.82.77-.61-.12-1.27.39-1.07-.09-.11h-.56l-1.1-.06-1.2-.35-1 .06-.85.22-.58-.49.68.06.8-.57.83-.18 1.4.24.77-.18.75-.75h.32l.44.19.48-.16.8-.47 1.9-.47v-1.06l1-1.4v-1l.13-.67.07-.79-1.28-.28-1-.89h-.89l-1.38.85-1.18.08-1.65-.72-1.81-.14-1.31 1.45.09.56.41.35.28.48-.63.08-.38.21-.35.86-.23-.72-.46-.18-1 .43-1.1 1.59-1.49 1.77 1.11-1.6V30.6l.24-.56.11-.73h-.48l-1 .81-.47 1.07-.48 1.28-.79.53.74-1.51.14-1.18 1.7-2.17.41-1.45.64-.91.92-.52 1-.72.69-.32.9-1.4 2.16-2.38.14-.55.45-.38-.48-.63.17-.69.31-.28v-1l-.88-.67h-.41v-.33l-.68-1.21-.63-.43-.13.34.37 1.17.38.56-.26.3-.46-.78-.62-1.86-1.07-2.75-1-1.45-.6-1.8v.48l-.23-1-.4-.37-.15-.91-.58-1.2-.24.14.07.74-.38.58-1 .7h.12l-.35.55-1.15 1.39-.67 1.55v.58l-.89 1.87-.8 1.22-.6 1.11-.83.13-.52.44-.15.74-.85.6-.56-.18-.06-1.22-.35-.16-.12-.38h-.53l-.7.25-.52.55-.86-.2-.7-.72v-.46l-.25-.2-.31-.74-.17-.44-.65-.14-1-.82-1.22-.05-.93.42-2 .08-1.07-.26-.95.59-.16.83.9.84.23.54.44 1-.16.33h-.82l-1.23-.33-.3-.22h-.29l-.08 1h-1.53l-.84-.64-.38-.4-1.34.07-1 .39-.49 1.52-1.92-.06-1 .3-.12.44-.68.76-1.07.1-.13-.3-.68.16-.57.73-.75-.3-1.83-1.56-.63-.83V17l-1.06-1-.84-.87-.1-.94.19-.62-.24-.46.15-.84.33-.67-.06-1 .89-1.6.3-1.26.84-1v-.51l-.87.08-.44-.67-.3-.68L76.4 5l-.82-.39L76 4l.6-.89V1.9l-.81-1-1.05-.05-.5.33-.38-.41-.47-.07.1 1-.43 1.09-2.44 1.68-1.51.13-2.11.86-.78-.37-1.3.14-1.51 1.35-1.48.48-.51-.31-2.09.25-1.61.1-1.46-.8-1.44-.22-1.35-.41.61 1.14 1 .35 1 .94.32.9-1.32 2 .51.94-.3 1.53 2.16.67 1.48-.14 1.48.3.08.93-1.08.5-2.18.44-.79.82-.44 1.14-2.38 1.23-.79.9-1.6 1-1.1 1.35-1.91.09-1.09-.14-1.86-1.42-1.8-1.14-.87.15v-1.32l-.51-1-.79-.94-.24-.76-1.28.35-.9 1-.6.08-.52-.25h-.91l-.57 1h-5.31l-.3 1.46.43 1.07 1.73.44.65 1.18L33 23l.53.53-.24.75-1.07-.69-3.05 1 .14 2.44.79 1 1.68 1.28 1.12 1.95-.06 1.52v.65l-2.55 9.35-.75 2.46.1.45-.4.65-1-.26.1-.28-1-.66-.36.1H25.9l-.39-.16-.35.72-3.17 1-2.39.49-.6.71-.52.17-.95 1-1.1.51-.83.53.13 1.18-.47.67.2.72L14.18 54l.44 1.59.42.83-.76.71-.67-.13-1.3.83-.07.91-.47.5.3.63-.17 1-.37.85.34.77-.24.67 1.27 1.26 2.29 3.63-1.19 1.5 2.89-.25 1.33.25 1 1.45.31 1.29 2 .06 2.38.15 2-1.77 1.66-.94.46.49-.21 1-.34.34v1.64l.18 2.74.06 1 .55.54.93-.15.9-.27 1-.06.51-.06.46.22h3.13l1.35.56 1.34.44h.76l1-2h1.06l1.38-.41.91-2.05 2.3-1.43 1.59-.27 1.53-.76h.21l1 .68 1.09-.68.54.48-.14 1.07.56 1.69-.75 1.36.6 2.14-.41.95.83 1.74 1.09.48.34 1.42 1.1.52 1.5.95 1 .94.41-.47 2-.47L61 85.71l1.22-.33 1.72 1.81.74-.06 2 .68 1.29.47.29 1.36 1 .27 1.23.68 1.15-.11v8.08l15.58 18.86 3.25-.62-2.3 2.64v.2l-.65.87.48.49-.29 1 1.17.88.07 1.4 1 1.41-.48 2.84.27 1.14-.35 1 .35 1 1.78-.13.73.34 2.2-.13 1.36.47 2.18-.88 1.16.81.89.26.34 1.09 1.18 5.05.82 1.8.86.23 1.88-1 1.06.4.68.68.68.13-.44.75-.12 4.39-.19.52-.12.16v.48l-.13.46v.54l.79-.49 2.11.27.06.91.86 1.9-.06 1.51.19 1.73.16 1.61-.26.65-.92-.05-1.11.6-.17.35-.65.54-.29-.16-1.88 1.22-.36.59-.72.17-1.72 1.4-.55.19-.07 1.11-.66.17-.56-.09-1.55 1.78-.27.65v1l-.65.19-.36.55L97 168l-.66.65-.76 1.23v.41l-.85.57-.12.42h.65l.5.25 2.29-.65 1 .65 1.06 1.41.92.39.55 1.23 1.09 1.72h.52l.9-.46h.49l1.07 1.72 1.29.58 1.11.24 1.07 1.06.07 1.28.9-.21 1.83.8 1.08 1.35 1.15 1.68 1.05.73-.22 1.3-.86 1.19.43 1.4.17.34.12.24.54.71h.52l1.52-1.22.61-1.4.77-3.23.72-2.18.35-.49-.41-.52-.67-1.09.33-.93.5-.34v-.59l1-.87v-.67l.43.37.64.1.78-.89.09-.94.31-.3.07-1.06.33-.75h.48l.33-.59-.23-.67-.51-.55.07-1.38-.4-.37.46.13.53 1.2 1.11 1.34h.45l.46-.4.32.3.1.79-.37.11-.44 1.58-1.05 1.82h-1l-.13 1.18-.35.62-.31-.1-1 .53-.71.6-.08.5-.78.14-.37.35v.51l.91.27 3-2.31 1.52-1.67 2.19-3.69.84-1.88.83-2.39 2.13-4 2.09-2.45.35-.73-.2-.26.09-.63.44-.14.34-1 .62-.35-.22-.84.22-.6-.22-.27-.38-.3.08-.92-1-1.28v-.52l.22-.57-.18-.6-.29-1.32-.48-1.42.36-.31 1.18-.25-.3-.75-.57-.35 1.06-.26v-.18l-1.12-.56.92-.28.62-.92.46.38L137 146l.86-.62v-.5l1.24-1.15 1.45-1 1.87-2.34 1.67-.24.91-.92 1-.89h.93l.61.56.7.18v-.74l.7-1.32 2-1.35.77-.25V135l-.47-.32-.63-.17-.29-.59.66-.18 1.21-.81.7.23.79-.07.57-.49h.78v.41l-1.13.68-1.16.24-.23.31.39.31 1.78-.73 2.15-.92-.18-.38.57-.54.54.1-.2.55a3.68 3.68 0 00.14.88c.08 0 1.33.22 1.33.22l.74-.46h1.59l1.5.18.9-.68v-.46l-.23-.24.13-.45 2-1.41 1.7-.63.87-.55.25-.57-.22-.35-.75-1.75.53-1.2.64-.79v-.89l.41-.37.74-.54.16-.93-.22-.13 1.24-2.09 1.71-2.07V117l.24-2.92-.28-.56.55-1.76.61-.7.1-.58 1.39-1.1.18-.55-.36-1.7.75-2.06-.2-1.59.27-1.2-.07-.68.4-1.73-.58-6.26v-1.15l1-.87v-.84l-.91.43-1.09-.52v-.53l1-1-.17-1 .17-.71.6-.16.14-1.1-.63-1-1.26-.55.34-.14.09-.47.26.52.73.42.67.25.28-1 .63.06.27.55.48.24-.51.67-.68.5-.15.15h.46l.91-.42 1.25-.63 1.58-2.39.72-1.76.22-1.08.61-.51.61-1.6.67-1.35 2.46-1.67.29-.79.76-.24.48-.92 2.09-1.85 1.91-2.47.46-.67 1.16-2.5.3-1.09.71-.79v-.82l-.75-.89z"
  transform="translate(-11.53 -.7)" fill="url(#Gradiente_sem_nome_9-7)"/>
  <path fill="url(#Gradiente_sem_nome_9-8)" d="M103.07 6.52l.04-.03-.04-.01v.04z"/>
  <path class="cls-9" d="M159.95 65.2l-13.82 39.49-14.47-39.49h-6.2l18.3 46.92h4.87l17.79-46.92h-6.47zM88.02 89.52h21.25v-4.99H88.02V70.52h25.86v-5H81.94v46.08h32.64v-4.99H88.02V89.52z"/>
  <path d="M231 112v-5h-26.58V89.92h21.24v-5h-21.24v-14h25.85v-5h-31.93V112zm48.31-46.4v37.06l-30.1-37.06h-5.44v46.59h5.89v-37L279.48 112h5.89V65.6zm17.89 5h15.36v41.6h6.14V70.59H334v-5h-36.8zm80.45 1.73q-2.7-7.11-15.81-7.1-7.49 0-11.46 3.07t-4 9.09v.25q0 7.62 8.9 11 16.83 4.55 16.83 11.77t-11.39 7.36q-8.07 0-11.65-5.5l-5.18 1.47q2.94 9.21 16.89 9.22 17.73 0 17.73-13 0-9.34-15.55-15.1-10.5-2.94-10.5-8A5.35 5.35 0 01355.1 72a13.72 13.72 0 017.36-1.66q9 0 10.05 4z" transform="translate(-11.53 -.7)" fill="#9200fc"/>
</svg>
