<svg width="482" height="191" viewBox="0 0 482 191" fill="none" xmlns="http://www.w3.org/2000/svg">
<g clip-path="url(#clip0)">
<path d="M130.761 26.0659L131.798 26.0052L132.141 25.4598L131.616 25.076L130.97 25.1164L130.768 25.5137L130.074 25.8167L130.761 26.0659Z" fill="url(#paint0_linear)"/>
<path d="M127.609 23.5877L128.074 22.8739L128.593 22.719L128.983 22.0658L128.559 21.9985L127.939 22.4564L127.461 22.6988L126.929 23.278L127.118 24.0928L127.609 23.5877Z" fill="url(#paint1_linear)"/>
<path d="M126.317 24.9076L126.572 25.3116L127.057 25.4598L127.091 25.0288L126.97 24.645L126.404 24.3756L126.317 24.9076Z" fill="url(#paint2_linear)"/>
<path d="M127.636 24.315L127.441 24.7056L127.865 24.9413L129.01 24.9817L129.36 25.2039L129.973 24.9076L130.162 24.3217L129.636 23.9109L128.323 24.2477L127.636 24.315Z" fill="url(#paint3_linear)"/>
<path d="M124.263 27.884L123.906 28.3554L124.182 28.4093L124.875 28.2948L125.125 27.7022L124.902 27.48L124.263 27.884Z" fill="url(#paint4_linear)"/>
<path d="M127.152 16.214C127.226 16.214 127.67 16.2746 127.67 16.2746L127.758 15.6618L127.084 14.4497L126.451 14.0187L126.323 14.3554L126.687 15.5271L127.152 16.214Z" fill="url(#paint5_linear)"/>
<path d="M125.683 25.7157L125.347 25.8167L124.923 25.7695L124.485 25.9446L123.609 26.8402L123.064 28.315L123.428 28.2275L123.582 27.8975L124.599 26.9143L125.091 26.8739L125.899 26.0524L125.683 25.7157Z" fill="url(#paint6_linear)"/>
<path d="M199.461 60.7662L200 60.2679L199.859 57.9783L199.327 57.6483L199.118 56.5103L197.502 52.9951V51.783L197.232 50.3352L194.189 48.9884L192.444 49.0625L191.151 49.5945L190.276 48.4025L189.259 48.1938L188.242 47.0625L186.896 46.3891L185.946 46.2679L183.838 44.0995L182.155 41.7763L181.34 41.581L180.189 40.5035L179.185 40.5844L176.357 38.5642H175.084L173.677 37.9648L172.801 38.4362H171.455L170.646 38.0322L169.771 38.4362L169.36 39.0288L168.828 38.5035L167.535 37.581L167.34 37.9648L166.795 37.5136L166.593 38.0995V38.5642L165.852 37.9648L165.731 37.5136L165.165 37.3453L165.327 37.8167L165.057 37.9985L163.677 37.453L163.219 37.5608L162.054 37.3318L159.475 36.1264L158.492 36.187L158.451 36.4699L158.653 37.0019L158.438 37.2578L157.892 36.9749L157.657 37.1029L157.502 37.4867L156.619 37.8975L156.296 38.3756L156.175 39.4396L155.69 38.6517L155.414 37.9783L154.949 38.1736L155.024 39.0355L154.209 40.4429V41.682L153.933 40.517L154.236 39.352L154.061 38.3217L154.539 36.8268L154.949 36.4564L154.599 36.1601H153.865L154.835 35.0625L153.562 33.7157L152.862 32.5035L152.189 32.5776L151.131 32.416L150.532 33.1702L149.926 33.4665L149.623 32.7931L149.172 32.5372L148.983 31.8638L148.444 31.4328L147.704 31.5069L147.333 31.0288L146.66 30.7931L146.29 31.2645V30.8672L145.778 30.5574L145.448 29.884L144.875 30.1197L143.838 29.8167L142.451 29.0288L142.04 28.9547L141.811 29.3588L140.97 28.7931L140.377 28.8537L140.229 29.4194L139.825 29.453L139.596 28.8268L138.519 28.7931L137.596 29.2847L137.091 30.1938L137.165 30.7123L136.141 31.7224L134.828 32.4766L133.152 33.453L132.337 34.4497L131.838 35.7359L131.63 37.0086L131.199 37.682L130.424 38.4766L130.471 39.0288L130.633 39.985L130.451 41.7291L130.148 40.6652L129.515 39.6349V38.8739L130.189 38.0591L130.956 37.4463L130.842 36.1736L131.226 35.1029L131.145 34.5507H130.579L129.481 34.9413L128.276 34.5844L127.226 34.645L126.384 34.8672L125.805 34.3756L126.478 34.4429L127.279 33.8706L128.108 33.6887L129.515 33.9312L130.283 33.7493L131.03 32.8402H131.38L131.818 33.1904L132.296 33.0288L133.104 32.5574L134.451 32.0928V31.0355L135.65 29.6416V28.6315L136.135 27.9581L136.202 27.1635L134.923 26.8874L133.899 26.0995H132.963L131.616 26.8874L130.465 26.9615L128.848 26.2881L127.084 26.1601L125.805 27.5069L125.886 28.0322L126.296 28.3554L126.566 28.7998L125.953 28.8739L125.576 29.0692L125.239 29.8705L125.01 29.1971L124.566 29.0355L123.556 29.4328L122.478 30.9143L121.024 32.5574L122.108 31.0692L122.074 30.086L122.31 29.5608L122.417 28.8874H121.946L120.997 29.6349L120.539 30.6315L120.067 31.8234L119.3 32.315L120.02 30.9076L120.162 29.8167L121.818 27.7965L122.215 26.4497L122.842 25.6079L123.744 25.1231L124.721 24.4497L125.394 24.1534L126.269 22.8537L128.465 20.6517L128.606 20.1399L129.044 19.7897L128.579 19.2039L128.741 18.5641L129.044 18.3015V17.3992L128.182 16.7729L127.205 16.8335L126.902 17.1635L126.458 16.4429L125.852 14.7123L124.808 12.1534L123.859 10.8066L123.185 9.04227V8.09952L122.956 7.12308L122.566 6.76618L122.417 5.87056L121.845 4.75944L121.609 4.89412L121.677 5.62139L121.306 6.19378L120.236 6.90759V6.87392L120.175 6.91433L119.825 7.46652L118.673 8.86046L117.461 10.4093V11.251L116.599 13.1231L115.825 14.3419L115.246 15.4463L114.444 15.581L113.946 15.9446L113.805 16.6921L112.976 17.2847L112.438 17.1096L112.377 15.8907L112.04 15.7291L111.926 15.352L111.414 15.3049L110.741 15.5608L110.236 16.113L109.441 15.9648L108.768 15.251V14.7931L108.525 14.5844L108.229 13.8503L108.067 13.4059L107.434 13.2712L106.518 12.4497L105.3 12.3891L104.404 12.8133L102.465 12.8874L101.414 12.6315L100.498 13.2174L100.35 14.0524L101.212 14.8874L101.434 15.4328L101.865 16.4362L101.704 16.7662L100.916 16.8133L99.7239 16.4833L99.4411 16.2611H99.0505L98.9697 16.2274H97.4478L96.606 16.3621L96.2357 15.9581L94.8889 16.0322L93.9124 16.4227L93.367 17.884L91.4545 17.8301L90.4646 18.1264L90.3367 18.5641L89.6633 19.3318L88.5926 19.4261L88.4579 19.1298L87.7845 19.2914L87.2121 20.0187L86.4646 19.7157L84.6262 18.1601L83.9528 17.3251V16.6517L82.936 15.6685L82.101 14.7931L82 13.8571L82.1953 13.2376L81.9528 12.7729L82.101 11.9379L82.431 11.2645L82.3704 10.2746L83.2794 8.69883L83.5825 7.43958L84.4175 6.40928L84.3838 5.89748L83.5151 5.97831L83.0707 5.30491L82.7677 4.63151L81.798 4.69211L80.9831 4.30153L81.4007 3.72913L81.9528 2.83352V1.60121L81.1919 0.638227L80.1414 0.543962L79.6363 0.873922L79.2592 0.469877L78.7946 0.395813L78.8956 1.38571L78.4579 2.47662L76.0202 4.16686L74.5118 4.30153L72.4175 5.15676L71.6363 4.78638L70.3367 4.92779L68.8081 6.27459L67.3333 6.75944L66.8215 6.44294L64.7272 6.69883L63.1178 6.79984L61.6633 5.99851L60.2222 5.77628L58.8754 5.37223L59.4814 6.50356L60.4646 6.86046L61.468 7.79648L61.7979 8.65843L60.4848 10.6786L60.9899 11.6214L60.6936 13.1433L62.8552 13.8167L64.3299 13.6483L65.8114 13.9446L65.8922 14.8806L64.808 15.379L62.6262 15.8167L61.8384 16.6382L61.4006 17.8301L59.0168 19.0625L58.2357 19.9581L56.6262 21.0019L55.5353 22.3487L53.6161 22.4362L52.532 22.2948L50.6666 20.8739L48.8754 19.6483L47.67 19.7965V18.5305L47.4882 17.5136L46.7003 16.5776L46.4646 15.8167L45.1852 16.1668L44.2761 17.1635L43.6767 17.2443L43.165 16.7864H42.2491L41.6768 17.4194L36.3906 17.453L36.0875 18.9547L36.5252 20.0591L38.3165 20.5103L38.9899 21.7359L38.4848 22.3083L39.0236 22.8604L38.7811 23.6349L37.67 22.9143L34.5252 23.9716L34.6666 26.4901L35.4815 27.5271L37.2188 28.8402L38.3771 30.8604L38.3165 32.4227L38.2693 33.0961L35.6431 42.7527L34.8687 45.2914L34.9697 45.7561L34.5589 46.4295L33.5555 46.1601L33.6565 45.8638L32.6128 45.1904L32.2424 45.2914H31.3266L30.9293 45.1298L30.5858 45.8571L27.3872 46.9076L24.9899 47.3992L24.3771 47.985L23.8518 48.1601L22.8956 49.1231L21.7845 49.6349L20.9562 50.1669L21.0774 51.3588L20.6128 52.0322L20.8148 52.7594L19.5286 54.0456L19.973 55.6416L20.3973 56.4834L19.6296 57.1972L18.9562 57.0759L17.6498 57.911L17.5825 58.8268L17.1043 59.3318L17.4074 59.9648L17.239 60.9951L16.8687 61.8571L17.2054 62.6315L16.9697 63.3049L18.2491 64.5709L20.5454 68.2207L19.3266 69.6887L22.2357 69.4396L23.5825 69.6887L24.5926 71.15L24.9091 72.4497L26.9293 72.5103L29.3198 72.6652L31.2929 70.8806L32.9629 69.9379L33.4343 70.4295L33.2188 71.453L32.8754 71.7965L32.835 73.4463L33.0976 76.1399L33.1582 77.2241L33.7104 77.7628L34.6464 77.6079L35.5488 77.3453L36.5589 77.2847L37.0707 77.2241L37.5353 77.4396L37.67 77.4934H40.6397L41.9865 77.554L43.3333 76.8268H44.0875L45.1178 76.086H46.2761L47.6229 75.6887L48.4242 73.6079L50.6666 72.2207L52.2087 71.9513L53.6969 71.2173H54.7138L55.6565 71.8907L56.734 71.2173L57.2727 71.6887L57.138 72.746L57.6835 74.4227L56.9427 75.7695L57.5421 77.884L57.138 78.8268L57.9596 80.5507L59.0303 81.0221L59.367 82.4227L60.4579 82.9412L61.9394 83.8773L62.9562 84.8133L63.3535 84.3419L65.3131 83.8773L66.936 85.4732L68.1481 85.1433L69.8451 86.9412L70.5791 86.8806L72.5993 87.554L73.8788 88.012L74.1616 89.3588L75.1044 89.6281L76.3165 90.3015L79.0101 90.0389L80.8889 91.1029L81.2929 91.8975L81.0303 94.0322L81.4478 95.7628L80.8889 96.8268L82.6532 99.7561L82.5252 101.891H83.7306L84.404 101.157C85.9192 99.5675 87.4007 97.9379 88.9158 96.3419C91.2054 93.8571 94.4848 91.4126 96 88.3083C97.0235 86.288 96.7407 83.8369 97.266 81.6281C98.2559 77.6214 103.683 66.1399 103.683 66.1399C105.147 61.8866 106.053 57.4613 106.377 52.9749C106.444 51.3453 106.586 48.4766 108.242 47.7763C109.549 47.2308 110.936 48.315 111.609 49.5204C112.239 50.9398 112.574 52.4726 112.593 54.0254C112.701 56.6181 112.343 59.2091 111.535 61.6753C110.795 64.086 110.236 67.7763 112.027 69.7965C112.349 70.1372 112.738 70.409 113.168 70.5954C113.599 70.7817 114.063 70.8788 114.532 70.8806C117.32 70.9951 119.111 68.9817 121.3 67.5136C123.32 66.1668 125.67 65.3386 127.643 63.9446C129.663 62.4295 131.683 60.8335 133.737 59.3588C135.683 58.012 137.407 56.0995 139.414 54.9749C140.862 54.1197 143.01 53.4598 144.067 55.3251C145.158 57.3049 143.502 59.2039 142.128 60.3285C139.872 62.113 137.508 63.9042 135.253 65.7157C133.62 67.1783 131.89 68.5282 130.074 69.7561C129.125 70.3756 127.327 70.8807 127.502 72.4497C127.506 72.6405 127.565 72.8261 127.671 72.9848C127.777 73.1434 127.926 73.2685 128.101 73.3453C128.389 73.3838 128.682 73.3442 128.949 73.2308C130.296 72.6854 131.522 71.6753 132.822 70.9412C134.129 70.2038 135.478 69.5428 136.862 68.9615C139.556 67.7965 142.33 66.7796 144.902 65.3857C146.027 64.7998 147.017 64.0389 148.108 63.4059C148.949 62.8201 150.007 62.2746 151.03 62.5507C151.416 62.6841 151.768 62.8999 152.063 63.1831C152.357 63.4663 152.586 63.8101 152.734 64.1907C152.882 64.5713 152.945 64.9794 152.92 65.387C152.894 65.7945 152.78 66.1916 152.586 66.5507C151.809 67.744 150.74 68.7197 149.481 69.3857C146.482 71.2673 143.387 72.9913 140.209 74.5507C137.744 75.7897 135.172 76.6113 132.741 77.9177C132.35 78.1466 128.936 79.9379 130.101 80.6113C130.256 80.6664 130.421 80.6876 130.584 80.6737C130.748 80.6598 130.907 80.6109 131.05 80.5305C133.024 79.8571 135.03 79.1837 137.037 78.6315C139.151 78.0793 141.306 77.7359 143.347 77.0759C144.761 76.6979 146.198 76.4122 147.65 76.2207C149.515 75.9514 154.061 75.251 154.7 78.0793C155.34 80.9076 149.987 82.1601 148.424 82.5911C144.721 83.5204 140.882 84.0658 137.145 84.6449C135.55 84.9245 133.989 85.3761 132.492 85.9918C131.717 86.3082 129.993 86.9278 129.993 88.0928C130.027 90.5372 136.828 89.9918 140.707 90.0322C142.397 90.0726 144.303 89.9581 145.919 90.6517C147.118 91.1567 148.141 92.7527 147.226 94.1062C146.952 94.4091 146.622 94.6549 146.253 94.8294C145.884 95.0039 145.485 95.1037 145.077 95.1231C142.431 95.5473 139.616 95.0019 136.997 94.5776C133.434 93.9985 129.731 95.0423 126.276 96.012C124.417 96.5449 122.655 97.3725 121.057 98.4631C119.407 99.5069 117.784 100.712 115.912 101.291C113.488 102.106 110.949 101.453 108.687 102.733C106.424 104.012 104.781 106.308 103.05 108.281C100.795 110.887 98.505 113.446 96.2491 116.052L93.8114 118.847L93.8518 119.049L93.2121 119.904L93.6565 120.382L93.367 121.379L94.5252 122.254L94.5926 123.642L95.5421 125.036L95.0707 127.844L95.3333 128.975L94.9899 129.972L95.3333 130.961L97.0976 130.833L97.8249 131.17L100 131.036L101.347 131.5L103.502 130.638L104.653 131.433L105.529 131.695L105.865 132.766L107.037 137.77L107.845 139.547L108.694 139.776L110.552 138.78L111.603 139.17L112.276 139.844L112.949 139.972L112.512 140.719L112.391 145.062L112.209 145.574L112.088 145.736V146.302L111.953 146.786L111.912 147.345L112.727 146.833L114.889 147.11L114.956 148.052L115.832 150.012L115.771 151.574L115.966 153.365L116.135 155.029L115.865 155.702L114.916 155.648L113.778 156.261L113.609 156.625L112.936 157.184L112.64 157.015L110.714 158.281L110.343 158.894L109.603 159.069L107.838 160.51L107.273 160.706L107.205 161.85L106.532 162.025L105.953 161.938L104.478 163.743L104.202 164.416L104.242 165.453L103.569 165.648L103.199 166.214L102.256 167.924L101.582 168.598L100.801 169.871V170.295L99.9326 170.887L99.8047 171.318H100.478L100.983 171.574L103.34 170.901L104.323 171.574L105.407 173.035L106.35 173.433L106.916 174.706L108.034 176.483H108.572L109.468 175.541L109.96 175.588L111.03 177.312L112.323 177.891L113.434 178.126L114.498 179.19L114.566 180.463L115.468 180.254L117.3 181.056L118.384 182.403L119.535 184.086L120.579 184.82L120.364 186.12L119.502 187.305L119.926 188.712L120.101 189.049L120.222 189.285L120.768 190.005L121.024 190.207L122.801 188.773L123.407 187.379L124.182 184.147L124.896 181.965L125.253 181.473L124.842 180.961L124.168 179.871L124.505 178.941L125.178 178.598V178.005L125.953 177.137V176.463L126.431 176.833L127.071 176.941L127.852 176.046L127.939 175.11L128.249 174.807L128.323 173.743L128.646 173.312H129.131L129.461 172.409L129.232 171.736L128.721 171.19L128.788 169.803L128.391 169.433L128.855 169.568L129.387 170.658L130.505 171.85H130.949L131.414 171.594L131.731 171.897L131.832 172.692L131.461 172.793L131.017 174.376L129.966 176.2L128.997 176.241L128.869 177.413L128.519 178.039L128.215 177.938L127.246 178.463L126.539 179.069L126.465 179.567L125.683 179.709L125.313 180.059L125.347 180.571L126.256 180.833L129.226 178.53L130.747 176.86L132.943 173.163L133.778 171.285L134.613 168.901L136.741 164.86L138.835 162.409L139.185 161.675L138.976 161.413L139.071 160.786L139.508 160.652L139.852 159.621L140.471 159.264L140.249 158.423L140.471 157.823L140.249 157.554L139.872 157.258L139.946 156.335L139.044 155.062V154.537L139.219 153.972L139.044 153.365L138.747 152.052L138.269 150.631L138.633 150.315L139.811 150.066L139.508 149.318L138.943 148.968L140.054 148.712V147.823L138.923 147.305L139.852 147.049L140.478 146.207L140.943 146.557L142.431 145.211L143.306 144.645L143.266 144.187L144.512 143.13L145.98 142.18L147.879 140.032L149.569 139.817L150.485 138.968L151.495 138.153H152.438L153.05 138.665L153.758 138.827L153.791 138.153L154.498 136.935L156.478 135.702L157.252 135.473V135.103L156.781 134.807L156.141 134.652L155.845 134.113L156.518 133.945L157.737 133.204L158.444 133.413L159.246 133.352L159.825 132.901L160.613 132.941L160.559 133.318L159.421 133.945L158.249 134.167L158.013 134.45L158.411 134.739L160.209 134.066L162.377 133.217L162.202 132.867L162.781 132.376L163.32 132.463L163.118 132.968C163.131 133.245 163.179 133.518 163.259 133.783C163.347 133.817 164.606 133.978 164.606 133.978L165.36 133.561H166.633L168.202 133.736L169.151 133.062V132.598L168.909 132.362L169.05 131.904L171.151 130.497L172.929 129.864L173.852 129.318L174.114 128.753L173.879 128.396L173.091 126.652L173.65 125.446L174.323 124.658L174.364 123.77L174.795 123.399L175.569 122.86L175.737 121.924L175.508 121.796L176.815 119.709L178.606 117.635V116.712L178.242 113.783L177.96 113.224L178.512 111.467L179.125 110.766L179.219 110.187L180.613 109.083L180.795 108.537L180.431 106.84L181.178 104.78L180.976 103.184L181.246 101.985L181.178 101.312L181.576 99.5742L181.111 93.3184V92.1601L181.481 91.2847V90.4497L181.091 90.8806L180.343 90.3554V89.8234L181.017 88.7998L180.848 87.7695L181.017 87.0625L181.623 86.8941L181.764 85.7965L181.131 84.7594L179.872 84.2072L180.215 84.0726L180.37 83.6618L180.633 84.1736L181.36 84.5978L182.034 84.847L182.31 83.8234L182.943 83.8907L183.212 84.4362L183.69 84.6786L183.178 85.352L182.505 85.8503L182.35 86.416H182.808L183.717 85.581L184.97 84.948L186.552 82.5574L187.273 80.7998L187.488 79.7224L188.101 79.2106L188.707 77.6079L189.38 76.2611L191.838 74.5843L192.135 73.7965L192.889 73.554L193.421 72.6921L195.515 70.8402L197.367 68.3823L197.832 67.7089L198.99 65.2106L199.286 64.113L199.859 63.3251V62.5103L199.253 61.6147L199.461 60.7662Z" fill="url(#paint7_linear)"/>
<path d="M93.0206 117.588L77.4411 98.7325V39.4732H132.968L171.717 68.4295L148.148 107.15L93.0206 117.588Z" fill="url(#paint8_linear)"/>
<path d="M199.461 60.7662L200 60.2679L199.859 57.9783L199.327 57.6483L199.118 56.5103L197.502 52.9951V51.783L197.232 50.3352L194.189 48.9884L192.444 49.0625L191.151 49.5945L190.276 48.4025L189.259 48.1938L188.242 47.0625L186.896 46.3891L185.946 46.2679L183.838 44.0995L182.155 41.7763L181.34 41.581L180.189 40.5035L179.185 40.5844L176.357 38.5642H175.084L173.677 37.9648L172.801 38.4362H171.455L170.646 38.0322L169.771 38.4362L169.36 39.0288L168.828 38.5035L167.535 37.581L167.34 37.9648L166.795 37.5136L166.593 38.0995V38.5642L165.852 37.9648L165.731 37.5136L165.165 37.3453L165.327 37.8167L165.057 37.9985L163.677 37.453L163.219 37.5608L162.054 37.3318L159.475 36.1264L158.492 36.187L158.451 36.4699L158.653 37.0019L158.438 37.2578L157.892 36.9749L157.657 37.1029L157.502 37.4867L156.619 37.8975L156.296 38.3756L156.175 39.4396L155.69 38.6517L155.414 37.9783L154.949 38.1736L155.024 39.0355L154.209 40.4429V41.682L153.933 40.517L154.236 39.352L154.061 38.3217L154.539 36.8268L154.949 36.4564L154.599 36.1601H153.865L154.835 35.0625L153.562 33.7157L152.862 32.5035L152.189 32.5776L151.131 32.416L150.532 33.1702L149.926 33.4665L149.623 32.7931L149.172 32.5372L148.983 31.8638L148.444 31.4328L147.704 31.5069L147.333 31.0288L146.66 30.7931L146.29 31.2645V30.8672L145.778 30.5574L145.448 29.884L144.875 30.1197L143.838 29.8167L142.451 29.0288L142.04 28.9547L141.811 29.3588L140.97 28.7931L140.377 28.8537L140.229 29.4194L139.825 29.453L139.596 28.8268L138.519 28.7931L137.596 29.2847L137.091 30.1938L137.165 30.7123L136.141 31.7224L134.828 32.4766L133.152 33.453L132.337 34.4497L131.838 35.7359L131.63 37.0086L131.199 37.682L130.424 38.4766L130.471 39.0288L130.633 39.985L130.451 41.7291L130.148 40.6652L129.515 39.6349V38.8739L130.189 38.0591L130.956 37.4463L130.842 36.1736L131.226 35.1029L131.145 34.5507H130.579L129.481 34.9413L128.276 34.5844L127.226 34.645L126.384 34.8672L125.805 34.3756L126.478 34.4429L127.279 33.8706L128.108 33.6887L129.515 33.9312L130.283 33.7493L131.03 32.8402H131.38L131.818 33.1904L132.296 33.0288L133.104 32.5574L134.451 32.0928V31.0355L135.65 29.6416V28.6315L136.135 27.9581L136.202 27.1635L134.923 26.8874L133.899 26.0995H132.963L131.616 26.8874L130.465 26.9615L128.848 26.2881L127.084 26.1601L125.805 27.5069L125.886 28.0322L126.296 28.3554L126.566 28.7998L125.953 28.8739L125.576 29.0692L125.239 29.8705L125.01 29.1971L124.566 29.0355L123.556 29.4328L122.478 30.9143L121.024 32.5574L122.108 31.0692L122.074 30.086L122.31 29.5608L122.417 28.8874H121.946L120.997 29.6349L120.539 30.6315L120.067 31.8234L119.3 32.315L120.02 30.9076L120.162 29.8167L121.818 27.7965L122.215 26.4497L122.842 25.6079L123.744 25.1231L124.721 24.4497L125.394 24.1534L126.269 22.8537L128.465 20.6517L128.606 20.1399L129.044 19.7897L128.579 19.2039L128.741 18.5641L129.044 18.3015V17.3992L128.182 16.7729L127.205 16.8335L126.902 17.1635L126.458 16.4429L125.852 14.7123L124.808 12.1534L123.859 10.8066L123.185 9.04227V8.09952L122.956 7.12308L122.566 6.76618L122.417 5.87056L121.845 4.75944L121.609 4.89412L121.677 5.62139L121.306 6.19378L120.236 6.90759V6.87392L120.175 6.91433L119.825 7.46652L118.673 8.86046L117.461 10.4093V11.251L116.599 13.1231L115.825 14.3419L115.246 15.4463L114.444 15.581L113.946 15.9446L113.805 16.6921L112.976 17.2847L112.438 17.1096L112.377 15.8907L112.04 15.7291L111.926 15.352L111.414 15.3049L110.741 15.5608L110.236 16.113L109.441 15.9648L108.768 15.251V14.7931L108.525 14.5844L108.229 13.8503L108.067 13.4059L107.434 13.2712L106.518 12.4497L105.3 12.3891L104.404 12.8133L102.465 12.8874L101.414 12.6315L100.498 13.2174L100.35 14.0524L101.212 14.8874L101.434 15.4328L101.865 16.4362L101.704 16.7662L100.916 16.8133L99.7239 16.4833L99.4411 16.2611H99.0505L98.9697 16.2274H97.4478L96.606 16.3621L96.2357 15.9581L94.8889 16.0322L93.9124 16.4227L93.367 17.884L91.4545 17.8301L90.4646 18.1264L90.3367 18.5641L89.6633 19.3318L88.5926 19.4261L88.4579 19.1298L87.7845 19.2914L87.2121 20.0187L86.4646 19.7157L84.6262 18.1601L83.9528 17.3251V16.6517L82.936 15.6685L82.101 14.7931L82 13.8571L82.1953 13.2376L81.9528 12.7729L82.101 11.9379L82.431 11.2645L82.3704 10.2746L83.2794 8.69883L83.5825 7.43958L84.4175 6.40928L84.3838 5.89748L83.5151 5.97831L83.0707 5.30491L82.7677 4.63151L81.798 4.69211L80.9831 4.30153L81.4007 3.72913L81.9528 2.83352V1.60121L81.1919 0.638227L80.1414 0.543962L79.6363 0.873922L79.2592 0.469877L78.7946 0.395813L78.8956 1.38571L78.4579 2.47662L76.0202 4.16686L74.5118 4.30153L72.4175 5.15676L71.6363 4.78638L70.3367 4.92779L68.8081 6.27459L67.3333 6.75944L66.8215 6.44294L64.7272 6.69883L63.1178 6.79984L61.6633 5.99851L60.2222 5.77628L58.8754 5.37223L59.4814 6.50356L60.4646 6.86046L61.468 7.79648L61.7979 8.65843L60.4848 10.6786L60.9899 11.6214L60.6936 13.1433L62.8552 13.8167L64.3299 13.6483L65.8114 13.9446L65.8922 14.8806L64.808 15.379L62.6262 15.8167L61.8384 16.6382L61.4006 17.8301L59.0168 19.0625L58.2357 19.9581L56.6262 21.0019L55.5353 22.3487L53.6161 22.4362L52.532 22.2948L50.6666 20.8739L48.8754 19.6483L47.67 19.7965V18.5305L47.4882 17.5136L46.7003 16.5776L46.4646 15.8167L45.1852 16.1668L44.2761 17.1635L43.6767 17.2443L43.165 16.7864H42.2491L41.6768 17.4194L36.3906 17.453L36.0875 18.9547L36.5252 20.0591L38.3165 20.5103L38.9899 21.7359L38.4848 22.3083L39.0236 22.8604L38.7811 23.6349L37.67 22.9143L34.5252 23.9716L34.6666 26.4901L35.4815 27.5271L37.2188 28.8402L38.3771 30.8604L38.3165 32.4227L38.2693 33.0961L35.6431 42.7527L34.8687 45.2914L34.9697 45.7561L34.5589 46.4295L33.5555 46.1601L33.6565 45.8638L32.6128 45.1904L32.2424 45.2914H31.3266L30.9293 45.1298L30.5858 45.8571L27.3872 46.9076L24.9899 47.3992L24.3771 47.985L23.8518 48.1601L22.8956 49.1231L21.7845 49.6349L20.9562 50.1669L21.0774 51.3588L20.6128 52.0322L20.8148 52.7594L19.5286 54.0456L19.973 55.6416L20.3973 56.4834L19.6296 57.1972L18.9562 57.0759L17.6498 57.911L17.5825 58.8268L17.1043 59.3318L17.4074 59.9648L17.239 60.9951L16.8687 61.8571L17.2054 62.6315L16.9697 63.3049L18.2491 64.5709L20.5454 68.2207L19.3266 69.6887L22.2357 69.4396L23.5825 69.6887L24.5926 71.15L24.9091 72.4497L26.9293 72.5103L29.3198 72.6652L31.2929 70.8806L32.9629 69.9379L33.4343 70.4295L33.2188 71.453L32.8754 71.7965L32.835 73.4463L33.0976 76.1399L33.1582 77.2241L33.7104 77.7628L34.6464 77.6079L35.5488 77.3453L36.5589 77.2847L37.0707 77.2241L37.5353 77.4396L37.67 77.4934H40.6397L41.9865 77.554L43.3333 76.8268H44.0875L45.1178 76.086H46.2761L47.6229 75.6887L48.4242 73.6079L50.6666 72.2207L52.2087 71.9513L53.6969 71.2173H54.7138L55.6565 71.8907L56.734 71.2173L57.2727 71.6887L57.138 72.746L57.6835 74.4227L56.9427 75.7695L57.5421 77.884L57.138 78.8268L57.9596 80.5507L59.0303 81.0221L59.367 82.4227L60.4579 82.9412L61.9394 83.8773L62.9562 84.8133L63.3535 84.3419L65.3131 83.8773L66.936 85.4732L68.1481 85.1433L69.8451 86.9412L70.5791 86.8806L72.5993 87.554L73.8788 88.012L74.1616 89.3588L75.1044 89.6281L76.3165 90.3015L79.0101 90.0389L80.8889 91.1029L81.2929 91.8975L81.0303 94.0322L81.4478 95.7628L80.8889 96.8268L82.6532 99.7561L82.5252 101.891H83.7306L84.404 101.157C85.9192 99.5675 87.4007 97.9379 88.9158 96.3419C91.2054 93.8571 94.4848 91.4126 96 88.3083C97.0235 86.288 96.7407 83.8369 97.266 81.6281C98.2559 77.6214 103.683 66.1399 103.683 66.1399C105.147 61.8866 106.053 57.4613 106.377 52.9749C106.444 51.3453 106.586 48.4766 108.242 47.7763C109.549 47.2308 110.936 48.315 111.609 49.5204C112.239 50.9398 112.574 52.4726 112.593 54.0254C112.701 56.6181 112.343 59.2091 111.535 61.6753C110.795 64.086 110.236 67.7763 112.027 69.7965C112.349 70.1372 112.738 70.409 113.168 70.5954C113.599 70.7817 114.063 70.8788 114.532 70.8806C117.32 70.9951 119.111 68.9817 121.3 67.5136C123.32 66.1668 125.67 65.3386 127.643 63.9446C129.663 62.4295 131.683 60.8335 133.737 59.3588C135.683 58.012 137.407 56.0995 139.414 54.9749C140.862 54.1197 143.01 53.4598 144.067 55.3251C145.158 57.3049 143.502 59.2039 142.128 60.3285C139.872 62.113 137.508 63.9042 135.253 65.7157C133.62 67.1783 131.89 68.5282 130.074 69.7561C129.125 70.3756 127.327 70.8807 127.502 72.4497C127.506 72.6405 127.565 72.8261 127.671 72.9848C127.777 73.1434 127.926 73.2685 128.101 73.3453C128.389 73.3838 128.682 73.3442 128.949 73.2308C130.296 72.6854 131.522 71.6753 132.822 70.9412C134.129 70.2038 135.478 69.5428 136.862 68.9615C139.556 67.7965 142.33 66.7796 144.902 65.3857C146.027 64.7998 147.017 64.0389 148.108 63.4059C148.949 62.8201 150.007 62.2746 151.03 62.5507C151.416 62.6841 151.768 62.8999 152.063 63.1831C152.357 63.4663 152.586 63.8101 152.734 64.1907C152.882 64.5713 152.945 64.9794 152.92 65.387C152.894 65.7945 152.78 66.1916 152.586 66.5507C151.809 67.744 150.74 68.7197 149.481 69.3857C146.482 71.2673 143.387 72.9913 140.209 74.5507C137.744 75.7897 135.172 76.6113 132.741 77.9177C132.35 78.1466 128.936 79.9379 130.101 80.6113C130.256 80.6664 130.421 80.6876 130.584 80.6737C130.748 80.6598 130.907 80.6109 131.05 80.5305C133.024 79.8571 135.03 79.1837 137.037 78.6315C139.151 78.0793 141.306 77.7359 143.347 77.0759C144.761 76.6979 146.198 76.4122 147.65 76.2207C149.515 75.9514 154.061 75.251 154.7 78.0793C155.34 80.9076 149.987 82.1601 148.424 82.5911C144.721 83.5204 140.882 84.0658 137.145 84.6449C135.55 84.9245 133.989 85.3761 132.492 85.9918C131.717 86.3082 129.993 86.9278 129.993 88.0928C130.027 90.5372 136.828 89.9918 140.707 90.0322C142.397 90.0726 144.303 89.9581 145.919 90.6517C147.118 91.1567 148.141 92.7527 147.226 94.1062C146.952 94.4091 146.622 94.6549 146.253 94.8294C145.884 95.0039 145.485 95.1037 145.077 95.1231C142.431 95.5473 139.616 95.0019 136.997 94.5776C133.434 93.9985 129.731 95.0423 126.276 96.012C124.417 96.5449 122.655 97.3725 121.057 98.4631C119.407 99.5069 117.784 100.712 115.912 101.291C113.488 102.106 110.949 101.453 108.687 102.733C106.424 104.012 104.781 106.308 103.05 108.281C100.795 110.887 98.505 113.446 96.2491 116.052L93.8114 118.847L93.8518 119.049L93.2121 119.904L93.6565 120.382L93.367 121.379L94.5252 122.254L94.5926 123.642L95.5421 125.036L95.0707 127.844L95.3333 128.975L94.9899 129.972L95.3333 130.961L97.0976 130.833L97.8249 131.17L100 131.036L101.347 131.5L103.502 130.638L104.653 131.433L105.529 131.695L105.865 132.766L107.037 137.77L107.845 139.547L108.694 139.776L110.552 138.78L111.603 139.17L112.276 139.844L112.949 139.972L112.512 140.719L112.391 145.062L112.209 145.574L112.088 145.736V146.302L111.953 146.786L111.912 147.345L112.727 146.833L114.889 147.11L114.956 148.052L115.832 150.012L115.771 151.574L115.966 153.365L116.135 155.029L115.865 155.702L114.916 155.648L113.778 156.261L113.609 156.625L112.936 157.184L112.64 157.015L110.714 158.281L110.343 158.894L109.603 159.069L107.838 160.51L107.273 160.706L107.205 161.85L106.532 162.025L105.953 161.938L104.478 163.743L104.202 164.416L104.242 165.453L103.569 165.648L103.199 166.214L102.256 167.924L101.582 168.598L100.801 169.871V170.295L99.9326 170.887L99.8047 171.318H100.478L100.983 171.574L103.34 170.901L104.323 171.574L105.407 173.035L106.35 173.433L106.916 174.706L108.034 176.483H108.572L109.468 175.541L109.96 175.588L111.03 177.312L112.323 177.891L113.434 178.126L114.498 179.19L114.566 180.463L115.468 180.254L117.3 181.056L118.384 182.403L119.535 184.086L120.579 184.82L120.364 186.12L119.502 187.305L119.926 188.712L120.101 189.049L120.222 189.285L120.768 190.005L121.024 190.207L122.801 188.773L123.407 187.379L124.182 184.147L124.896 181.965L125.253 181.473L124.842 180.961L124.168 179.871L124.505 178.941L125.178 178.598V178.005L125.953 177.137V176.463L126.431 176.833L127.071 176.941L127.852 176.046L127.939 175.11L128.249 174.807L128.323 173.743L128.646 173.312H129.131L129.461 172.409L129.232 171.736L128.721 171.19L128.788 169.803L128.391 169.433L128.855 169.568L129.387 170.658L130.505 171.85H130.949L131.414 171.594L131.731 171.897L131.832 172.692L131.461 172.793L131.017 174.376L129.966 176.2L128.997 176.241L128.869 177.413L128.519 178.039L128.215 177.938L127.246 178.463L126.539 179.069L126.465 179.567L125.683 179.709L125.313 180.059L125.347 180.571L126.256 180.833L129.226 178.53L130.747 176.86L132.943 173.163L133.778 171.285L134.613 168.901L136.741 164.86L138.835 162.409L139.185 161.675L138.976 161.413L139.071 160.786L139.508 160.652L139.852 159.621L140.471 159.264L140.249 158.423L140.471 157.823L140.249 157.554L139.872 157.258L139.946 156.335L139.044 155.062V154.537L139.219 153.972L139.044 153.365L138.747 152.052L138.269 150.631L138.633 150.315L139.811 150.066L139.508 149.318L138.943 148.968L140.054 148.712V147.823L138.923 147.305L139.852 147.049L140.478 146.207L140.943 146.557L142.431 145.211L143.306 144.645L143.266 144.187L144.512 143.13L145.98 142.18L147.879 140.032L149.569 139.817L150.485 138.968L151.495 138.153H152.438L153.05 138.665L153.758 138.827L153.791 138.153L154.498 136.935L156.478 135.702L157.252 135.473V135.103L156.781 134.807L156.141 134.652L155.845 134.113L156.518 133.945L157.737 133.204L158.444 133.413L159.246 133.352L159.825 132.901L160.613 132.941L160.559 133.318L159.421 133.945L158.249 134.167L158.013 134.45L158.411 134.739L160.209 134.066L162.377 133.217L162.202 132.867L162.781 132.376L163.32 132.463L163.118 132.968C163.131 133.245 163.179 133.518 163.259 133.783C163.347 133.817 164.606 133.978 164.606 133.978L165.36 133.561H166.633L168.202 133.736L169.151 133.062V132.598L168.909 132.362L169.05 131.904L171.151 130.497L172.929 129.864L173.852 129.318L174.114 128.753L173.879 128.396L173.091 126.652L173.65 125.446L174.323 124.658L174.364 123.77L174.795 123.399L175.569 122.86L175.737 121.924L175.508 121.796L176.815 119.709L178.606 117.635V116.712L178.242 113.783L177.96 113.224L178.512 111.467L179.125 110.766L179.219 110.187L180.613 109.083L180.795 108.537L180.431 106.84L181.178 104.78L180.976 103.184L181.246 101.985L181.178 101.312L181.576 99.5742L181.111 93.3184V92.1601L181.481 91.2847V90.4497L181.091 90.8806L180.343 90.3554V89.8234L181.017 88.7998L180.848 87.7695L181.017 87.0625L181.623 86.8941L181.764 85.7965L181.131 84.7594L179.872 84.2072L180.215 84.0726L180.37 83.6618L180.633 84.1736L181.36 84.5978L182.034 84.847L182.31 83.8234L182.943 83.8907L183.212 84.4362L183.69 84.6786L183.178 85.352L182.505 85.8503L182.35 86.416H182.808L183.717 85.581L184.97 84.948L186.552 82.5574L187.273 80.7998L187.488 79.7224L188.101 79.2106L188.707 77.6079L189.38 76.2611L191.838 74.5843L192.135 73.7965L192.889 73.554L193.421 72.6921L195.515 70.8402L197.367 68.3823L197.832 67.7089L198.99 65.2106L199.286 64.113L199.859 63.3251V62.5103L199.253 61.6147L199.461 60.7662Z" stroke="url(#paint9_linear)"/>
<path d="M93.0206 117.588L77.4411 98.7325V39.4732H132.968L171.717 68.4295L148.148 107.15L93.0206 117.588Z" stroke="url(#paint10_linear)"/>
</g>
<path d="M137.76 112V107.008H111.2V89.92H132.448V84.928H111.2V70.912H137.056V65.92H105.12V112H137.76ZM148.633 65.6L166.937 112.512H171.801L189.593 65.6H183.129L169.305 105.088L154.841 65.6H148.633Z" fill="white"/>
<path d="M235.685 112V107.008H209.125V89.92H230.373V84.928H209.125V70.912H234.981V65.92H203.045V112H235.685ZM283.997 65.6V102.656L253.917 65.6H248.477V112.192H254.365V75.2L284.189 112H290.077V65.6H283.997ZM301.888 70.592H317.248V112.192H323.392V70.592H338.688V65.6H301.888V70.592ZM382.336 72.32C380.544 67.584 375.274 65.216 366.528 65.216C361.536 65.216 357.717 66.24 355.072 68.288C352.426 70.336 351.104 73.3653 351.104 77.376V77.632C351.104 82.7093 354.069 86.3573 360 88.576C371.221 91.6053 376.832 95.5307 376.832 100.352C376.832 105.259 373.034 107.712 365.44 107.712C360.064 107.712 356.181 105.877 353.792 102.208L348.608 103.68C350.57 109.824 356.202 112.896 365.503 112.896C377.322 112.896 383.232 108.565 383.232 99.904C383.232 93.6747 378.048 88.64 367.68 84.8C360.682 82.8373 357.184 80.1707 357.184 76.8C357.184 74.7093 358.058 73.1093 359.808 72C361.557 70.8907 364.01 70.336 367.168 70.336C373.141 70.336 376.49 71.68 377.216 74.368L382.336 72.32Z" fill="#9200FC"/>
<defs>
<linearGradient id="paint0_linear" x1="131.108" y1="25.076" x2="131.108" y2="26.0659" gradientUnits="userSpaceOnUse">
<stop stop-color="#9200FC"/>
<stop offset="0.34375" stop-color="#7900D0"/>
<stop offset="0.671875" stop-color="#5B009D"/>
<stop offset="1" stop-color="#47007A"/>
</linearGradient>
<linearGradient id="paint1_linear" x1="127.956" y1="21.9985" x2="127.956" y2="24.0928" gradientUnits="userSpaceOnUse">
<stop stop-color="#9200FC"/>
<stop offset="0.34375" stop-color="#7900D0"/>
<stop offset="0.671875" stop-color="#5B009D"/>
<stop offset="1" stop-color="#47007A"/>
</linearGradient>
<linearGradient id="paint2_linear" x1="126.704" y1="24.3756" x2="126.704" y2="25.4598" gradientUnits="userSpaceOnUse">
<stop stop-color="#9200FC"/>
<stop offset="0.34375" stop-color="#7900D0"/>
<stop offset="0.671875" stop-color="#5B009D"/>
<stop offset="1" stop-color="#47007A"/>
</linearGradient>
<linearGradient id="paint3_linear" x1="128.801" y1="23.9109" x2="128.801" y2="25.2039" gradientUnits="userSpaceOnUse">
<stop stop-color="#9200FC"/>
<stop offset="0.34375" stop-color="#7900D0"/>
<stop offset="0.671875" stop-color="#5B009D"/>
<stop offset="1" stop-color="#47007A"/>
</linearGradient>
<linearGradient id="paint4_linear" x1="124.515" y1="27.48" x2="124.515" y2="28.4093" gradientUnits="userSpaceOnUse">
<stop stop-color="#9200FC"/>
<stop offset="0.34375" stop-color="#7900D0"/>
<stop offset="0.671875" stop-color="#5B009D"/>
<stop offset="1" stop-color="#47007A"/>
</linearGradient>
<linearGradient id="paint5_linear" x1="127.04" y1="14.0187" x2="127.04" y2="16.2746" gradientUnits="userSpaceOnUse">
<stop stop-color="#9200FC"/>
<stop offset="0.34375" stop-color="#7900D0"/>
<stop offset="0.671875" stop-color="#5B009D"/>
<stop offset="1" stop-color="#47007A"/>
</linearGradient>
<linearGradient id="paint6_linear" x1="124.481" y1="25.7157" x2="124.481" y2="28.315" gradientUnits="userSpaceOnUse">
<stop stop-color="#9200FC"/>
<stop offset="0.34375" stop-color="#7900D0"/>
<stop offset="0.671875" stop-color="#5B009D"/>
<stop offset="1" stop-color="#47007A"/>
</linearGradient>
<linearGradient id="paint7_linear" x1="108.434" y1="0.395813" x2="108.434" y2="190.207" gradientUnits="userSpaceOnUse">
<stop stop-color="#9200FC"/>
<stop offset="0.34375" stop-color="#7900D0"/>
<stop offset="0.671875" stop-color="#5B009D"/>
<stop offset="1" stop-color="#47007A"/>
</linearGradient>
<linearGradient id="paint8_linear" x1="108.434" y1="0.395813" x2="108.434" y2="190.207" gradientUnits="userSpaceOnUse">
<stop stop-color="#9200FC"/>
<stop offset="0.34375" stop-color="#7900D0"/>
<stop offset="0.671875" stop-color="#5B009D"/>
<stop offset="1" stop-color="#47007A"/>
</linearGradient>
<linearGradient id="paint9_linear" x1="108.434" y1="0.395813" x2="108.434" y2="190.207" gradientUnits="userSpaceOnUse">
<stop stop-color="#9200FC"/>
<stop offset="0.34375" stop-color="#7900D0"/>
<stop offset="0.671875" stop-color="#5B009D"/>
<stop offset="1" stop-color="#47007A"/>
</linearGradient>
<linearGradient id="paint10_linear" x1="108.434" y1="0.395813" x2="108.434" y2="190.207" gradientUnits="userSpaceOnUse">
<stop stop-color="#9200FC"/>
<stop offset="0.34375" stop-color="#7900D0"/>
<stop offset="0.671875" stop-color="#5B009D"/>
<stop offset="1" stop-color="#47007A"/>
</linearGradient>
<clipPath id="clip0">
<rect width="200" height="189.697" fill="white" transform="translate(0 0.416016)"/>
</clipPath>
</defs>
</svg>
