<svg width="203" height="193" viewBox="0 0 203 193" fill="none" xmlns="http://www.w3.org/2000/svg">
<g clip-path="url(#clip0)">
<path d="M132.722 26.0965L133.775 26.0348L134.124 25.4798L133.59 25.0893L132.934 25.1304L132.729 25.5347L132.025 25.843L132.722 26.0965Z" fill="url(#paint0_linear)"/>
<path d="M129.524 23.5752L129.995 22.8489L130.521 22.6914L130.918 22.0268L130.487 21.9583L129.858 22.4242L129.373 22.6708L128.833 23.26L129.025 24.089L129.524 23.5752Z" fill="url(#paint1_linear)"/>
<path d="M128.211 24.918L128.471 25.3291L128.963 25.4799L128.997 25.0414L128.874 24.6508L128.3 24.3768L128.211 24.918Z" fill="url(#paint2_linear)"/>
<path d="M129.551 24.3151L129.353 24.7125L129.783 24.9523L130.945 24.9934L131.301 25.2195L131.923 24.918L132.114 24.322L131.581 23.9041L130.248 24.2466L129.551 24.3151Z" fill="url(#paint3_linear)"/>
<path d="M126.127 27.9463L125.764 28.4259L126.045 28.4807L126.749 28.3642L127.001 27.7613L126.776 27.5352L126.127 27.9463Z" fill="url(#paint4_linear)"/>
<path d="M129.059 16.0731C129.134 16.0731 129.585 16.1347 129.585 16.1347L129.674 15.5112L128.99 14.278L128.348 13.8395L128.218 14.1821L128.587 15.3742L129.059 16.0731Z" fill="url(#paint5_linear)"/>
<path d="M127.569 25.7402L127.227 25.8429L126.796 25.795L126.352 25.9731L125.464 26.8843L124.91 28.3848L125.279 28.2957L125.436 27.96L126.468 26.9597L126.967 26.9186L127.787 26.0827L127.569 25.7402Z" fill="url(#paint6_linear)"/>
<path d="M202.453 61.401L203 60.894L202.856 58.5645L202.316 58.2288L202.105 57.071L200.464 53.4946V52.2614L200.191 50.7884L197.101 49.4181L195.331 49.4935L194.019 50.0347L193.13 48.8221L192.098 48.6097L191.066 47.4586L189.699 46.7735L188.735 46.6502L186.596 44.4441L184.887 42.0804L184.06 41.8817L182.891 40.7855L181.873 40.8677L179.002 38.8124H177.71L176.282 38.2026L175.393 38.6822H174.026L173.206 38.2711L172.318 38.6822L171.901 39.2851L171.361 38.7507L170.048 37.8121L169.85 38.2026L169.297 37.7436L169.091 38.3396V38.8124L168.34 38.2026L168.217 37.7436L167.642 37.5723L167.807 38.0519L167.533 38.2369L166.132 37.6819L165.667 37.7915L164.485 37.5586L161.867 36.3322L160.869 36.3939L160.828 36.6816L161.033 37.2229L160.814 37.4832L160.261 37.1955L160.021 37.3256L159.864 37.7162L158.969 38.1341L158.641 38.6205L158.518 39.703L158.026 38.9014L157.745 38.2163L157.274 38.415L157.349 39.292L156.522 40.7239V41.9845L156.242 40.7992L156.549 39.614L156.372 38.5657L156.857 37.0447L157.274 36.6679L156.918 36.3665H156.173L157.158 35.2497L155.866 33.8794L155.155 32.6462L154.471 32.7216L153.398 32.5572L152.79 33.3245L152.175 33.626L151.867 32.9408L151.409 32.6805L151.218 31.9954L150.671 31.5569L149.919 31.6322L149.543 31.1458L148.86 30.906L148.484 31.3856V30.9814L147.964 30.6662L147.63 29.9811L147.049 30.2209L145.996 29.9126L144.588 29.111L144.171 29.0356L143.939 29.4467L143.084 28.8712L142.483 28.9328L142.332 29.5084L141.922 29.5426L141.69 28.9054L140.596 28.8712L139.66 29.3713L139.147 30.2963L139.222 30.8238L138.184 31.8515L136.851 32.6188L135.149 33.6123L134.322 34.6263L133.816 35.9348L133.604 37.2297L133.167 37.9148L132.381 38.7233L132.428 39.2851L132.592 40.258L132.408 42.0325L132.1 40.95L131.458 39.9017V39.1275L132.141 38.2985L132.921 37.675L132.804 36.3802L133.194 35.2908L133.112 34.729H132.538L131.424 35.1264L130.2 34.7633L129.134 34.8249L128.28 35.051L127.692 34.5509L128.375 34.6194L129.189 34.037L130.029 33.8521L131.458 34.0987L132.237 33.9137L132.996 32.9888H133.351L133.795 33.345L134.281 33.1806L135.101 32.701L136.468 32.2283V31.1527L137.685 29.7344V28.7068L138.177 28.0216L138.245 27.2132L136.946 26.9323L135.907 26.1307H134.957L133.59 26.9323L132.422 27.0076L130.781 26.3225L128.99 26.1923L127.692 27.5626L127.774 28.097L128.191 28.4259L128.464 28.878L127.842 28.9534L127.459 29.1521L127.118 29.9674L126.885 29.2823L126.434 29.1178L125.409 29.5221L124.315 31.0293L122.839 32.701L123.939 31.1869L123.905 30.1866L124.144 29.6522L124.254 28.9671H123.775L122.812 29.7276L122.347 30.7416L121.868 31.9542L121.089 32.4544L121.821 31.0225L121.964 29.9126L123.645 27.8572L124.049 26.487L124.684 25.6305L125.6 25.1373L126.591 24.4521L127.275 24.1507L128.163 22.8284L130.392 20.588L130.535 20.0673L130.979 19.711L130.508 19.115L130.672 18.4641L130.979 18.1969V17.2789L130.105 16.6417L129.113 16.7034L128.806 17.0391L128.355 16.306L127.74 14.5452L126.68 11.9417L125.716 10.5715L125.033 8.77645V7.81727L124.801 6.82383L124.404 6.46072L124.254 5.54951L123.673 4.41903L123.434 4.55607L123.502 5.29599L123.126 5.87836L122.039 6.60459V6.57034L121.978 6.61144L121.622 7.17325L120.454 8.59147L119.223 10.1672V11.0237L118.348 12.9283L117.562 14.1684L116.974 15.292L116.161 15.429L115.655 15.799L115.512 16.5595L114.671 17.1624L114.124 16.9843L114.063 15.7442L113.721 15.5797L113.605 15.1961L113.085 15.1481L112.402 15.4085L111.889 15.9703L111.083 15.8195L110.399 15.0933V14.6274L110.153 14.415L109.852 13.6682L109.688 13.2161L109.046 13.079L108.116 12.2432L106.879 12.1815L105.97 12.6132L104.002 12.6885L102.935 12.4282L102.006 13.0242L101.855 13.8738L102.73 14.7233L102.956 15.2783L103.393 16.2991L103.229 16.6348L102.43 16.6828L101.22 16.3471L100.933 16.121H100.536L100.454 16.0867H98.9095L98.0551 16.2238L97.6792 15.8127L96.3122 15.8881L95.3211 16.2854L94.7675 17.7722L92.8264 17.7173L91.8216 18.0188L91.6917 18.4641L91.0082 19.2452L89.9215 19.3411L89.7848 19.0396L89.1013 19.2041L88.5203 19.944L87.7616 19.6357L85.8957 18.0531L85.2122 17.2035V16.5184L84.1801 15.5181L83.3325 14.6274L83.23 13.6751L83.4282 13.0448L83.1822 12.572L83.3325 11.7225L83.6674 11.0374L83.6059 10.0302L84.5287 8.42702L84.8362 7.14584L85.6838 6.0976L85.6496 5.5769L84.7679 5.65913L84.3167 4.974L84.0092 4.28888L83.0249 4.35054L82.1979 3.95315L82.6217 3.37079L83.1822 2.45958V1.20581L82.4098 0.226066L81.3435 0.13016L80.8309 0.465865L80.4481 0.054785L79.9765 -0.0205688L80.0791 0.986567L79.6348 2.09647L77.1605 3.81614L75.6294 3.95315L73.5038 4.82328L72.7109 4.44644L71.3917 4.59031L69.8402 5.96057L68.3433 6.45386L67.8239 6.13185L65.6982 6.3922L64.0646 6.49496L62.5882 5.67968L61.1255 5.45358L59.7585 5.0425L60.3737 6.19353L61.3716 6.55664L62.39 7.50896L62.7249 8.38592L61.3921 10.4413L61.9047 11.4005L61.604 12.9489L63.798 13.634L65.2949 13.4627L66.7986 13.7642L66.8806 14.7165L65.7802 15.2235L63.5656 15.6688L62.7659 16.5047L62.3217 17.7173L59.9021 18.9711L59.1092 19.8823L57.4756 20.9443L56.3684 22.3145L54.4204 22.4036L53.32 22.2597L51.4266 20.8141L49.6085 19.5672L48.3851 19.7179V18.4299L48.2005 17.3953L47.4008 16.443L47.1616 15.6688L45.863 16.0251L44.9402 17.0391L44.3319 17.1213L43.8125 16.6554H42.8829L42.3019 17.2994L36.9364 17.3337L36.6288 18.8615L37.0731 19.9851L38.8912 20.4441L39.5747 21.6911L39.0621 22.2734L39.6089 22.8352L39.3628 23.6231L38.2351 22.89L35.0431 23.9657L35.1867 26.5281L36.0137 27.5832L37.7771 28.9191L38.9527 30.9745L38.8912 32.564L38.8434 33.2491L36.1777 43.0738L35.3917 45.6568L35.4942 46.1295L35.0773 46.8146L34.0589 46.5406L34.1614 46.2391L33.102 45.554L32.7261 45.6568H31.7965L31.3932 45.4923L31.0446 46.2323L27.798 47.3011L25.3647 47.8012L24.7428 48.3973L24.2096 48.5754L23.239 49.5551L22.1113 50.0758L21.2706 50.6171L21.3936 51.8298L20.922 52.5149L21.127 53.2548L19.8215 54.5634L20.2727 56.1872L20.7033 57.0436L19.9241 57.7698L19.2406 57.6465L17.9146 58.496L17.8462 59.4278L17.3609 59.9416L17.6685 60.5857L17.4976 61.6339L17.1217 62.5109L17.4634 63.2988L17.2242 63.9839L18.5229 65.2719L20.8536 68.9853L19.6165 70.4789L22.5692 70.2254L23.9362 70.4789L24.9615 71.9656L25.2827 73.2879L27.3332 73.3496L29.7597 73.5071L31.7623 71.6915L33.4574 70.7324L33.9358 71.2325L33.7171 72.2739L33.3685 72.6233L33.3275 74.3019L33.5941 77.0424L33.6556 78.1454L34.2161 78.6935L35.1662 78.536L36.082 78.2688L37.1073 78.2071L37.6267 78.1454L38.0984 78.3647L38.2351 78.4195H41.2493L42.6163 78.4811L43.9833 77.7412H44.7488L45.7946 76.9876H46.9702L48.3372 76.5834L49.1506 74.4663L51.4266 73.055L52.9919 72.7809L54.5024 72.0341H55.5345L56.4914 72.7192L57.585 72.0341L58.1318 72.5137L57.9951 73.5894L58.5487 75.2953L57.7969 76.6656L58.4052 78.8169L57.9951 79.776L58.829 81.53L59.9158 82.0095L60.2575 83.4346L61.3648 83.9622L62.8685 84.9145L63.9006 85.8668L64.3038 85.3872L66.2928 84.9145L67.9401 86.5382L69.1704 86.2025L70.8928 88.0318L71.6378 87.9701L73.6883 88.6553L74.987 89.1212L75.274 90.4914L76.2309 90.7654L77.4612 91.4506L80.1952 91.1834L82.1022 92.2659L82.5123 93.0743L82.2457 95.2462L82.6695 97.007L82.1022 98.0894L83.893 101.07L83.7631 103.242H84.9866L85.6701 102.495C87.208 100.878 88.7117 99.2199 90.2496 97.5962C92.5735 95.068 95.9021 92.581 97.44 89.4226C98.4789 87.3672 98.1918 84.8734 98.725 82.6262C99.7297 78.5497 105.239 66.8683 105.239 66.8683C106.724 62.5409 107.643 58.0386 107.973 53.4741C108.041 51.816 108.185 48.8974 109.866 48.1849C111.192 47.6299 112.6 48.733 113.284 49.9594C113.923 51.4035 114.262 52.963 114.281 54.5428C114.391 57.1806 114.028 59.8168 113.208 62.3259C112.457 64.7786 111.889 68.5331 113.707 70.5885C114.035 70.9352 114.429 71.2117 114.866 71.4013C115.303 71.5909 115.774 71.6896 116.25 71.6915C119.08 71.808 120.898 69.7595 123.119 68.2659C125.17 66.8957 127.555 66.053 129.558 64.6348C131.608 63.0932 133.659 61.4695 135.743 59.9691C137.719 58.5988 139.469 56.653 141.505 55.5089C142.975 54.6388 145.155 53.9674 146.228 55.8652C147.336 57.8794 145.654 59.8115 144.26 60.9556C141.97 62.7712 139.571 64.5937 137.281 66.4366C135.624 67.9247 133.868 69.2981 132.025 70.5474C131.061 71.1777 129.236 71.6916 129.414 73.2879C129.419 73.4821 129.478 73.6709 129.586 73.8323C129.694 73.9937 129.845 74.121 130.023 74.1991C130.315 74.2383 130.612 74.198 130.884 74.0826C132.251 73.5277 133.495 72.5 134.814 71.7532C136.141 71.0029 137.51 70.3304 138.915 69.739C141.649 68.5537 144.465 67.5191 147.076 66.1009C148.217 65.5049 149.222 64.7307 150.329 64.0867C151.184 63.4906 152.257 62.9356 153.296 63.2165C153.687 63.3523 154.045 63.5719 154.344 63.86C154.642 64.1481 154.875 64.4979 155.025 64.8851C155.175 65.2723 155.239 65.6876 155.213 66.1022C155.188 66.5168 155.072 66.9208 154.875 67.2862C154.086 68.5003 153.001 69.493 151.724 70.1706C148.68 72.0849 145.538 73.839 142.312 75.4255C139.81 76.6861 137.199 77.522 134.732 78.8511C134.335 79.0841 130.87 80.9065 132.053 81.5916C132.21 81.6477 132.377 81.6693 132.543 81.6551C132.71 81.6409 132.871 81.5913 133.016 81.5094C135.019 80.8243 137.056 80.1392 139.093 79.5774C141.239 79.0155 143.426 78.6661 145.497 77.9947C146.932 77.6101 148.391 77.3194 149.865 77.1246C151.758 76.8506 156.372 76.138 157.021 79.0155C157.67 81.8931 152.236 83.1674 150.651 83.6059C146.891 84.5514 142.995 85.1063 139.202 85.6955C137.583 85.98 135.999 86.4394 134.479 87.0658C133.693 87.3878 131.943 88.0181 131.943 89.2034C131.977 91.6904 138.881 91.1354 142.818 91.1765C144.533 91.2176 146.468 91.1012 148.108 91.8069C149.325 92.3207 150.364 93.9444 149.434 95.3216C149.157 95.6297 148.821 95.8797 148.447 96.0573C148.073 96.2348 147.667 96.3364 147.254 96.3561C144.567 96.7877 141.71 96.2328 139.052 95.8011C135.436 95.2119 131.677 96.2739 128.17 97.2604C126.283 97.8027 124.495 98.6447 122.873 99.7543C121.199 100.816 119.551 102.043 117.651 102.632C115.191 103.461 112.614 102.796 110.317 104.098C108.021 105.4 106.353 107.736 104.596 109.743C102.307 112.395 99.9826 114.998 97.6929 117.65L95.2186 120.493L95.2596 120.699L94.6103 121.569L95.0614 122.055L94.7675 123.069L95.9431 123.96L96.0115 125.371L96.9752 126.789L96.4968 129.646L96.7633 130.797L96.4147 131.811L96.7633 132.818L98.5541 132.688L99.2923 133.031L101.5 132.894L102.867 133.367L105.054 132.49L106.223 133.298L107.112 133.565L107.453 134.655L108.643 139.745L109.463 141.554L110.324 141.787L112.21 140.773L113.277 141.17L113.96 141.855L114.644 141.985L114.199 142.746L114.076 147.165L113.892 147.686L113.769 147.85V148.426L113.632 148.919L113.591 149.488L114.418 148.967L116.612 149.248L116.681 150.207L117.569 152.201L117.508 153.79L117.706 155.613L117.877 157.305L117.603 157.99L116.64 157.935L115.484 158.559L115.314 158.929L114.63 159.497L114.329 159.326L112.375 160.614L111.999 161.237L111.247 161.416L109.456 162.882L108.882 163.08L108.813 164.245L108.13 164.423L107.542 164.334L106.045 166.17L105.765 166.856L105.806 167.911L105.123 168.109L104.747 168.685L103.79 170.425L103.106 171.11L102.313 172.405V172.837L101.432 173.44L101.302 173.878H101.985L102.498 174.138L104.89 173.453L105.888 174.138L106.989 175.625L107.945 176.029L108.52 177.324L109.654 179.133H110.201L111.11 178.174L111.609 178.222L112.696 179.976L114.008 180.565L115.136 180.805L116.216 181.887L116.284 183.182L117.2 182.97L119.059 183.785L120.16 185.155L121.328 186.868L122.388 187.615L122.169 188.937L121.294 190.143L121.725 191.575L121.903 191.917L122.026 192.157L122.579 192.89L122.839 193.096L124.643 191.637L125.259 190.218L126.045 186.93L126.769 184.71L127.131 184.21L126.714 183.689L126.031 182.579L126.373 181.634L127.056 181.284V180.681L127.842 179.798V179.112L128.327 179.489L128.977 179.599L129.77 178.688L129.858 177.735L130.173 177.427L130.248 176.345L130.576 175.906H131.068L131.403 174.988L131.171 174.303L130.651 173.748L130.72 172.337L130.316 171.96L130.788 172.097L131.328 173.207L132.463 174.419H132.914L133.385 174.159L133.707 174.467L133.809 175.276L133.433 175.378L132.982 176.989L131.916 178.845L130.932 178.886L130.802 180.078L130.446 180.716L130.139 180.613L129.154 181.147L128.437 181.764L128.362 182.271L127.569 182.415L127.193 182.771L127.227 183.292L128.15 183.559L131.164 181.216L132.709 179.517L134.937 175.755L135.784 173.844L136.632 171.418L138.792 167.308L140.918 164.814L141.273 164.067L141.061 163.8L141.157 163.163L141.601 163.026L141.95 161.977L142.578 161.614L142.353 160.758L142.578 160.148L142.353 159.874L141.97 159.573L142.045 158.634L141.129 157.339V156.805L141.307 156.229L141.129 155.613L140.829 154.277L140.343 152.831L140.712 152.509L141.909 152.255L141.601 151.495L141.027 151.139L142.155 150.878V149.974L141.006 149.446L141.95 149.186L142.585 148.33L143.057 148.686L144.567 147.316L145.456 146.74L145.415 146.274L146.679 145.199L148.169 144.233L150.097 142.047L151.813 141.828L152.742 140.965L153.767 140.136H154.724L155.346 140.656L156.064 140.821L156.098 140.136L156.816 138.896L158.825 137.642L159.611 137.409V137.032L159.133 136.731L158.484 136.573L158.183 136.025L158.866 135.854L160.103 135.1L160.821 135.312L161.634 135.251L162.222 134.792L163.022 134.833L162.967 135.216L161.812 135.854L160.623 136.08L160.384 136.367L160.787 136.662L162.612 135.977L164.813 135.114L164.635 134.757L165.223 134.257L165.77 134.346L165.565 134.86C165.578 135.141 165.626 135.42 165.708 135.689C165.797 135.723 167.075 135.888 167.075 135.888L167.841 135.463H169.132L170.725 135.641L171.689 134.956V134.483L171.443 134.244L171.586 133.778L173.719 132.346L175.523 131.702L176.46 131.147L176.726 130.571L176.487 130.208L175.687 128.434L176.255 127.207L176.938 126.406L176.979 125.501L177.417 125.125L178.203 124.576L178.373 123.624L178.141 123.494L179.467 121.37L181.285 119.26V118.321L180.916 115.341L180.629 114.772L181.189 112.984L181.811 112.272L181.907 111.682L183.322 110.559L183.507 110.004L183.137 108.277L183.896 106.181L183.691 104.557L183.964 103.338L183.896 102.652L184.299 100.885L183.828 94.5199V93.3415L184.204 92.4509V91.6013L183.807 92.0398L183.049 91.5054V90.9641L183.732 89.9228L183.561 88.8745L183.732 88.1551L184.347 87.9838L184.491 86.8671L183.848 85.812L182.57 85.2502L182.919 85.1132L183.076 84.6952L183.342 85.2159L184.081 85.6476L184.764 85.9011L185.044 84.8597L185.687 84.9282L185.96 85.4831L186.446 85.7298L185.926 86.4149L185.243 86.9219L185.085 87.4974H185.55L186.473 86.6479L187.744 86.0038L189.35 83.5716L190.082 81.7835L190.301 80.6873L190.923 80.1666L191.538 78.536L192.221 77.1657L194.716 75.4597L195.017 74.6582L195.782 74.4115L196.322 73.5345L198.448 71.6504L200.328 69.1497L200.799 68.4646L201.975 65.9228L202.275 64.806L202.856 64.0044V63.1754L202.241 62.2642L202.453 61.401Z" fill="url(#paint7_linear)"/>
<path d="M94.4159 119.212L78.6027 100.028V39.7373H134.963L174.293 69.1977L150.37 108.592L94.4159 119.212Z" fill="url(#paint8_linear)"/>
<path d="M202.453 61.401L203 60.894L202.856 58.5645L202.316 58.2288L202.105 57.071L200.464 53.4946V52.2614L200.191 50.7884L197.101 49.4181L195.331 49.4935L194.019 50.0347L193.13 48.8221L192.098 48.6097L191.066 47.4586L189.699 46.7735L188.735 46.6502L186.596 44.4441L184.887 42.0804L184.06 41.8817L182.891 40.7855L181.873 40.8677L179.002 38.8124H177.71L176.282 38.2026L175.393 38.6822H174.026L173.206 38.2711L172.318 38.6822L171.901 39.2851L171.361 38.7507L170.048 37.8121L169.85 38.2026L169.297 37.7436L169.091 38.3396V38.8124L168.34 38.2026L168.217 37.7436L167.642 37.5723L167.807 38.0519L167.533 38.2369L166.132 37.6819L165.667 37.7915L164.485 37.5586L161.867 36.3322L160.869 36.3939L160.828 36.6816L161.033 37.2229L160.814 37.4832L160.261 37.1955L160.021 37.3256L159.864 37.7162L158.969 38.1341L158.641 38.6205L158.518 39.703L158.026 38.9014L157.745 38.2163L157.274 38.415L157.349 39.292L156.522 40.7239V41.9845L156.242 40.7992L156.549 39.614L156.372 38.5657L156.857 37.0447L157.274 36.6679L156.918 36.3665H156.173L157.158 35.2497L155.866 33.8794L155.155 32.6462L154.471 32.7216L153.398 32.5572L152.79 33.3245L152.175 33.626L151.867 32.9408L151.409 32.6805L151.218 31.9954L150.671 31.5569L149.919 31.6322L149.543 31.1458L148.86 30.906L148.484 31.3856V30.9814L147.964 30.6662L147.63 29.9811L147.049 30.2209L145.996 29.9126L144.588 29.111L144.171 29.0356L143.939 29.4467L143.084 28.8712L142.483 28.9328L142.332 29.5084L141.922 29.5426L141.69 28.9054L140.596 28.8712L139.66 29.3713L139.147 30.2963L139.222 30.8238L138.184 31.8515L136.851 32.6188L135.149 33.6123L134.322 34.6263L133.816 35.9348L133.604 37.2297L133.167 37.9148L132.381 38.7233L132.428 39.2851L132.592 40.258L132.408 42.0325L132.1 40.95L131.458 39.9017V39.1275L132.141 38.2985L132.921 37.675L132.804 36.3802L133.194 35.2908L133.112 34.729H132.538L131.424 35.1264L130.2 34.7633L129.134 34.8249L128.28 35.051L127.692 34.5509L128.375 34.6194L129.189 34.037L130.029 33.8521L131.458 34.0987L132.237 33.9137L132.996 32.9888H133.351L133.795 33.345L134.281 33.1806L135.101 32.701L136.468 32.2283V31.1527L137.685 29.7344V28.7068L138.177 28.0216L138.245 27.2132L136.946 26.9323L135.907 26.1307H134.957L133.59 26.9323L132.422 27.0076L130.781 26.3225L128.99 26.1923L127.692 27.5626L127.774 28.097L128.191 28.4259L128.464 28.878L127.842 28.9534L127.459 29.1521L127.118 29.9674L126.885 29.2823L126.434 29.1178L125.409 29.5221L124.315 31.0293L122.839 32.701L123.939 31.1869L123.905 30.1866L124.144 29.6522L124.254 28.9671H123.775L122.812 29.7276L122.347 30.7416L121.868 31.9542L121.089 32.4544L121.821 31.0225L121.964 29.9126L123.645 27.8572L124.049 26.487L124.684 25.6305L125.6 25.1373L126.591 24.4521L127.275 24.1507L128.163 22.8284L130.392 20.588L130.535 20.0673L130.979 19.711L130.508 19.115L130.672 18.4641L130.979 18.1969V17.2789L130.105 16.6417L129.113 16.7034L128.806 17.0391L128.355 16.306L127.74 14.5452L126.68 11.9417L125.716 10.5715L125.033 8.77645V7.81727L124.801 6.82383L124.404 6.46072L124.254 5.54951L123.673 4.41903L123.434 4.55607L123.502 5.29599L123.126 5.87836L122.039 6.60459V6.57034L121.978 6.61144L121.622 7.17325L120.454 8.59147L119.223 10.1672V11.0237L118.348 12.9283L117.562 14.1684L116.974 15.292L116.161 15.429L115.655 15.799L115.512 16.5595L114.671 17.1624L114.124 16.9843L114.063 15.7442L113.721 15.5797L113.605 15.1961L113.085 15.1481L112.402 15.4085L111.889 15.9703L111.083 15.8195L110.399 15.0933V14.6274L110.153 14.415L109.852 13.6682L109.688 13.2161L109.046 13.079L108.116 12.2432L106.879 12.1815L105.97 12.6132L104.002 12.6885L102.935 12.4282L102.006 13.0242L101.855 13.8738L102.73 14.7233L102.956 15.2783L103.393 16.2991L103.229 16.6348L102.43 16.6828L101.22 16.3471L100.933 16.121H100.536L100.454 16.0867H98.9095L98.0551 16.2238L97.6792 15.8127L96.3122 15.8881L95.3211 16.2854L94.7675 17.7722L92.8264 17.7173L91.8216 18.0188L91.6917 18.4641L91.0082 19.2452L89.9215 19.3411L89.7848 19.0396L89.1013 19.2041L88.5203 19.944L87.7616 19.6357L85.8957 18.0531L85.2122 17.2035V16.5184L84.1801 15.5181L83.3325 14.6274L83.23 13.6751L83.4282 13.0448L83.1822 12.572L83.3325 11.7225L83.6674 11.0374L83.6059 10.0302L84.5287 8.42702L84.8362 7.14584L85.6838 6.0976L85.6496 5.5769L84.7679 5.65913L84.3167 4.974L84.0092 4.28888L83.0249 4.35054L82.1979 3.95315L82.6217 3.37079L83.1822 2.45958V1.20581L82.4098 0.226066L81.3435 0.13016L80.8309 0.465865L80.4481 0.054785L79.9765 -0.0205688L80.0791 0.986567L79.6348 2.09647L77.1605 3.81614L75.6294 3.95315L73.5038 4.82328L72.7109 4.44644L71.3917 4.59031L69.8402 5.96057L68.3433 6.45386L67.8239 6.13185L65.6982 6.3922L64.0646 6.49496L62.5882 5.67968L61.1255 5.45358L59.7585 5.0425L60.3737 6.19353L61.3716 6.55664L62.39 7.50896L62.7249 8.38592L61.3921 10.4413L61.9047 11.4005L61.604 12.9489L63.798 13.634L65.2949 13.4627L66.7986 13.7642L66.8806 14.7165L65.7802 15.2235L63.5656 15.6688L62.7659 16.5047L62.3217 17.7173L59.9021 18.9711L59.1092 19.8823L57.4756 20.9443L56.3684 22.3145L54.4204 22.4036L53.32 22.2597L51.4266 20.8141L49.6085 19.5672L48.3851 19.7179V18.4299L48.2005 17.3953L47.4008 16.443L47.1616 15.6688L45.863 16.0251L44.9402 17.0391L44.3319 17.1213L43.8125 16.6554H42.8829L42.3019 17.2994L36.9364 17.3337L36.6288 18.8615L37.0731 19.9851L38.8912 20.4441L39.5747 21.6911L39.0621 22.2734L39.6089 22.8352L39.3628 23.6231L38.2351 22.89L35.0431 23.9657L35.1867 26.5281L36.0137 27.5832L37.7771 28.9191L38.9527 30.9745L38.8912 32.564L38.8434 33.2491L36.1777 43.0738L35.3917 45.6568L35.4942 46.1295L35.0773 46.8146L34.0589 46.5406L34.1614 46.2391L33.102 45.554L32.7261 45.6568H31.7965L31.3932 45.4923L31.0446 46.2323L27.798 47.3011L25.3647 47.8012L24.7428 48.3973L24.2096 48.5754L23.239 49.5551L22.1113 50.0758L21.2706 50.6171L21.3936 51.8298L20.922 52.5149L21.127 53.2548L19.8215 54.5634L20.2727 56.1872L20.7033 57.0436L19.9241 57.7698L19.2406 57.6465L17.9146 58.496L17.8462 59.4278L17.3609 59.9416L17.6685 60.5857L17.4976 61.6339L17.1217 62.5109L17.4634 63.2988L17.2242 63.9839L18.5229 65.2719L20.8536 68.9853L19.6165 70.4789L22.5692 70.2254L23.9362 70.4789L24.9615 71.9656L25.2827 73.2879L27.3332 73.3496L29.7597 73.5071L31.7623 71.6915L33.4574 70.7324L33.9358 71.2325L33.7171 72.2739L33.3685 72.6233L33.3275 74.3019L33.5941 77.0424L33.6556 78.1454L34.2161 78.6935L35.1662 78.536L36.082 78.2688L37.1073 78.2071L37.6267 78.1454L38.0984 78.3647L38.2351 78.4195H41.2493L42.6163 78.4811L43.9833 77.7412H44.7488L45.7946 76.9876H46.9702L48.3372 76.5834L49.1506 74.4663L51.4266 73.055L52.9919 72.7809L54.5024 72.0341H55.5345L56.4914 72.7192L57.585 72.0341L58.1318 72.5137L57.9951 73.5894L58.5487 75.2953L57.7969 76.6656L58.4052 78.8169L57.9951 79.776L58.829 81.53L59.9158 82.0095L60.2575 83.4346L61.3648 83.9622L62.8685 84.9145L63.9006 85.8668L64.3038 85.3872L66.2928 84.9145L67.9401 86.5382L69.1704 86.2025L70.8928 88.0318L71.6378 87.9701L73.6883 88.6553L74.987 89.1212L75.274 90.4914L76.2309 90.7654L77.4612 91.4506L80.1952 91.1834L82.1022 92.2659L82.5123 93.0743L82.2457 95.2462L82.6695 97.007L82.1022 98.0894L83.893 101.07L83.7631 103.242H84.9866L85.6701 102.495C87.208 100.878 88.7117 99.2199 90.2496 97.5962C92.5735 95.068 95.9021 92.581 97.44 89.4226C98.4789 87.3672 98.1918 84.8734 98.725 82.6262C99.7297 78.5497 105.239 66.8683 105.239 66.8683C106.724 62.5409 107.643 58.0386 107.973 53.4741C108.041 51.816 108.185 48.8974 109.866 48.1849C111.192 47.6299 112.6 48.733 113.284 49.9594C113.923 51.4035 114.262 52.963 114.281 54.5428C114.391 57.1806 114.028 59.8168 113.208 62.3259C112.457 64.7786 111.889 68.5331 113.707 70.5885C114.035 70.9352 114.429 71.2117 114.866 71.4013C115.303 71.5909 115.774 71.6896 116.25 71.6915C119.08 71.808 120.898 69.7595 123.119 68.2659C125.17 66.8957 127.555 66.053 129.558 64.6348C131.608 63.0932 133.659 61.4695 135.743 59.9691C137.719 58.5988 139.469 56.653 141.505 55.5089C142.975 54.6388 145.155 53.9674 146.228 55.8652C147.336 57.8794 145.654 59.8115 144.26 60.9556C141.97 62.7712 139.571 64.5937 137.281 66.4366C135.624 67.9247 133.868 69.2981 132.025 70.5474C131.061 71.1777 129.236 71.6916 129.414 73.2879C129.419 73.4821 129.478 73.6709 129.586 73.8323C129.694 73.9937 129.845 74.121 130.023 74.1991C130.315 74.2383 130.612 74.198 130.884 74.0826C132.251 73.5277 133.495 72.5 134.814 71.7532C136.141 71.0029 137.51 70.3304 138.915 69.739C141.649 68.5537 144.465 67.5191 147.076 66.1009C148.217 65.5049 149.222 64.7307 150.329 64.0867C151.184 63.4906 152.257 62.9356 153.296 63.2165C153.687 63.3523 154.045 63.5719 154.344 63.86C154.642 64.1481 154.875 64.4979 155.025 64.8851C155.175 65.2723 155.239 65.6876 155.213 66.1022C155.188 66.5168 155.072 66.9208 154.875 67.2862C154.086 68.5003 153.001 69.493 151.724 70.1706C148.68 72.0849 145.538 73.839 142.312 75.4255C139.81 76.6861 137.199 77.522 134.732 78.8511C134.335 79.0841 130.87 80.9065 132.053 81.5916C132.21 81.6477 132.377 81.6693 132.543 81.6551C132.71 81.6409 132.871 81.5913 133.016 81.5094C135.019 80.8243 137.056 80.1392 139.093 79.5774C141.239 79.0155 143.426 78.6661 145.497 77.9947C146.932 77.6101 148.391 77.3194 149.865 77.1246C151.758 76.8506 156.372 76.138 157.021 79.0155C157.67 81.8931 152.236 83.1674 150.651 83.6059C146.891 84.5514 142.995 85.1063 139.202 85.6955C137.583 85.98 135.999 86.4394 134.479 87.0658C133.693 87.3878 131.943 88.0181 131.943 89.2034C131.977 91.6904 138.881 91.1354 142.818 91.1765C144.533 91.2176 146.468 91.1012 148.108 91.8069C149.325 92.3207 150.364 93.9444 149.434 95.3216C149.157 95.6297 148.821 95.8797 148.447 96.0573C148.073 96.2348 147.667 96.3364 147.254 96.3561C144.567 96.7877 141.71 96.2328 139.052 95.8011C135.436 95.2119 131.677 96.2739 128.17 97.2604C126.283 97.8027 124.495 98.6447 122.873 99.7543C121.199 100.816 119.551 102.043 117.651 102.632C115.191 103.461 112.614 102.796 110.317 104.098C108.021 105.4 106.353 107.736 104.596 109.743C102.307 112.395 99.9826 114.998 97.6929 117.65L95.2186 120.493L95.2596 120.699L94.6103 121.569L95.0614 122.055L94.7675 123.069L95.9431 123.96L96.0115 125.371L96.9752 126.789L96.4968 129.646L96.7633 130.797L96.4147 131.811L96.7633 132.818L98.5541 132.688L99.2923 133.031L101.5 132.894L102.867 133.367L105.054 132.49L106.223 133.298L107.112 133.565L107.453 134.655L108.643 139.745L109.463 141.554L110.324 141.787L112.21 140.773L113.277 141.17L113.96 141.855L114.644 141.985L114.199 142.746L114.076 147.165L113.892 147.686L113.769 147.85V148.426L113.632 148.919L113.591 149.488L114.418 148.967L116.612 149.248L116.681 150.207L117.569 152.201L117.508 153.79L117.706 155.613L117.877 157.305L117.603 157.99L116.64 157.935L115.484 158.559L115.314 158.929L114.63 159.497L114.329 159.326L112.375 160.614L111.999 161.237L111.247 161.416L109.456 162.882L108.882 163.08L108.813 164.245L108.13 164.423L107.542 164.334L106.045 166.17L105.765 166.856L105.806 167.911L105.123 168.109L104.747 168.685L103.79 170.425L103.106 171.11L102.313 172.405V172.837L101.432 173.44L101.302 173.878H101.985L102.498 174.138L104.89 173.453L105.888 174.138L106.989 175.625L107.945 176.029L108.52 177.324L109.654 179.133H110.201L111.11 178.174L111.609 178.222L112.696 179.976L114.008 180.565L115.136 180.805L116.216 181.887L116.284 183.182L117.2 182.97L119.059 183.785L120.16 185.155L121.328 186.868L122.388 187.615L122.169 188.937L121.294 190.143L121.725 191.575L121.903 191.917L122.026 192.157L122.579 192.89L122.839 193.096L124.643 191.637L125.259 190.218L126.045 186.93L126.769 184.71L127.131 184.21L126.714 183.689L126.031 182.579L126.373 181.634L127.056 181.284V180.681L127.842 179.798V179.112L128.327 179.489L128.977 179.599L129.77 178.688L129.858 177.735L130.173 177.427L130.248 176.345L130.576 175.906H131.068L131.403 174.988L131.171 174.303L130.651 173.748L130.72 172.337L130.316 171.96L130.788 172.097L131.328 173.207L132.463 174.419H132.914L133.385 174.159L133.707 174.467L133.809 175.276L133.433 175.378L132.982 176.989L131.916 178.845L130.932 178.886L130.802 180.078L130.446 180.716L130.139 180.613L129.154 181.147L128.437 181.764L128.362 182.271L127.569 182.415L127.193 182.771L127.227 183.292L128.15 183.559L131.164 181.216L132.709 179.517L134.937 175.755L135.784 173.844L136.632 171.418L138.792 167.308L140.918 164.814L141.273 164.067L141.061 163.8L141.157 163.163L141.601 163.026L141.95 161.977L142.578 161.614L142.353 160.758L142.578 160.148L142.353 159.874L141.97 159.573L142.045 158.634L141.129 157.339V156.805L141.307 156.229L141.129 155.613L140.829 154.277L140.343 152.831L140.712 152.509L141.909 152.255L141.601 151.495L141.027 151.139L142.155 150.878V149.974L141.006 149.446L141.95 149.186L142.585 148.33L143.057 148.686L144.567 147.316L145.456 146.74L145.415 146.274L146.679 145.199L148.169 144.233L150.097 142.047L151.813 141.828L152.742 140.965L153.767 140.136H154.724L155.346 140.656L156.064 140.821L156.098 140.136L156.816 138.896L158.825 137.642L159.611 137.409V137.032L159.133 136.731L158.484 136.573L158.183 136.025L158.866 135.854L160.103 135.1L160.821 135.312L161.634 135.251L162.222 134.792L163.022 134.833L162.967 135.216L161.812 135.854L160.623 136.08L160.384 136.367L160.787 136.662L162.612 135.977L164.813 135.114L164.635 134.757L165.223 134.257L165.77 134.346L165.565 134.86C165.578 135.141 165.626 135.42 165.708 135.689C165.797 135.723 167.075 135.888 167.075 135.888L167.841 135.463H169.132L170.725 135.641L171.689 134.956V134.483L171.443 134.244L171.586 133.778L173.719 132.346L175.523 131.702L176.46 131.147L176.726 130.571L176.487 130.208L175.687 128.434L176.255 127.207L176.938 126.406L176.979 125.501L177.417 125.125L178.203 124.576L178.373 123.624L178.141 123.494L179.467 121.37L181.285 119.26V118.321L180.916 115.341L180.629 114.772L181.189 112.984L181.811 112.272L181.907 111.682L183.322 110.559L183.507 110.004L183.137 108.277L183.896 106.181L183.691 104.557L183.964 103.338L183.896 102.652L184.299 100.885L183.828 94.5199V93.3415L184.204 92.4509V91.6013L183.807 92.0398L183.049 91.5054V90.9641L183.732 89.9228L183.561 88.8745L183.732 88.1551L184.347 87.9838L184.491 86.8671L183.848 85.812L182.57 85.2502L182.919 85.1132L183.076 84.6952L183.342 85.2159L184.081 85.6476L184.764 85.9011L185.044 84.8597L185.687 84.9282L185.96 85.4831L186.446 85.7298L185.926 86.4149L185.243 86.9219L185.085 87.4974H185.55L186.473 86.6479L187.744 86.0038L189.35 83.5716L190.082 81.7835L190.301 80.6873L190.923 80.1666L191.538 78.536L192.221 77.1657L194.716 75.4597L195.017 74.6582L195.782 74.4115L196.322 73.5345L198.448 71.6504L200.328 69.1497L200.799 68.4646L201.975 65.9228L202.275 64.806L202.856 64.0044V63.1754L202.241 62.2642L202.453 61.401Z" stroke="url(#paint9_linear)"/>
<path d="M94.4159 119.212L78.6027 100.028V39.7373H134.963L174.293 69.1977L150.37 108.592L94.4159 119.212Z" stroke="url(#paint10_linear)"/>
</g>
<defs>
<linearGradient id="paint0_linear" x1="133.074" y1="25.0893" x2="133.074" y2="26.0965" gradientUnits="userSpaceOnUse">
<stop stop-color="#9200FC"/>
<stop offset="0.34375" stop-color="#7900D0"/>
<stop offset="0.671875" stop-color="#5B009D"/>
<stop offset="1" stop-color="#47007A"/>
</linearGradient>
<linearGradient id="paint1_linear" x1="129.876" y1="21.9583" x2="129.876" y2="24.089" gradientUnits="userSpaceOnUse">
<stop stop-color="#9200FC"/>
<stop offset="0.34375" stop-color="#7900D0"/>
<stop offset="0.671875" stop-color="#5B009D"/>
<stop offset="1" stop-color="#47007A"/>
</linearGradient>
<linearGradient id="paint2_linear" x1="128.604" y1="24.3768" x2="128.604" y2="25.4799" gradientUnits="userSpaceOnUse">
<stop stop-color="#9200FC"/>
<stop offset="0.34375" stop-color="#7900D0"/>
<stop offset="0.671875" stop-color="#5B009D"/>
<stop offset="1" stop-color="#47007A"/>
</linearGradient>
<linearGradient id="paint3_linear" x1="130.733" y1="23.9041" x2="130.733" y2="25.2195" gradientUnits="userSpaceOnUse">
<stop stop-color="#9200FC"/>
<stop offset="0.34375" stop-color="#7900D0"/>
<stop offset="0.671875" stop-color="#5B009D"/>
<stop offset="1" stop-color="#47007A"/>
</linearGradient>
<linearGradient id="paint4_linear" x1="126.383" y1="27.5352" x2="126.383" y2="28.4807" gradientUnits="userSpaceOnUse">
<stop stop-color="#9200FC"/>
<stop offset="0.34375" stop-color="#7900D0"/>
<stop offset="0.671875" stop-color="#5B009D"/>
<stop offset="1" stop-color="#47007A"/>
</linearGradient>
<linearGradient id="paint5_linear" x1="128.946" y1="13.8395" x2="128.946" y2="16.1347" gradientUnits="userSpaceOnUse">
<stop stop-color="#9200FC"/>
<stop offset="0.34375" stop-color="#7900D0"/>
<stop offset="0.671875" stop-color="#5B009D"/>
<stop offset="1" stop-color="#47007A"/>
</linearGradient>
<linearGradient id="paint6_linear" x1="126.349" y1="25.7402" x2="126.349" y2="28.3848" gradientUnits="userSpaceOnUse">
<stop stop-color="#9200FC"/>
<stop offset="0.34375" stop-color="#7900D0"/>
<stop offset="0.671875" stop-color="#5B009D"/>
<stop offset="1" stop-color="#47007A"/>
</linearGradient>
<linearGradient id="paint7_linear" x1="110.061" y1="-0.0205688" x2="110.061" y2="193.096" gradientUnits="userSpaceOnUse">
<stop stop-color="#9200FC"/>
<stop offset="0.34375" stop-color="#7900D0"/>
<stop offset="0.671875" stop-color="#5B009D"/>
<stop offset="1" stop-color="#47007A"/>
</linearGradient>
<linearGradient id="paint8_linear" x1="110.061" y1="-0.0205688" x2="110.061" y2="193.096" gradientUnits="userSpaceOnUse">
<stop stop-color="#9200FC"/>
<stop offset="0.34375" stop-color="#7900D0"/>
<stop offset="0.671875" stop-color="#5B009D"/>
<stop offset="1" stop-color="#47007A"/>
</linearGradient>
<linearGradient id="paint9_linear" x1="110.061" y1="-0.0205688" x2="110.061" y2="193.096" gradientUnits="userSpaceOnUse">
<stop stop-color="#9200FC"/>
<stop offset="0.34375" stop-color="#7900D0"/>
<stop offset="0.671875" stop-color="#5B009D"/>
<stop offset="1" stop-color="#47007A"/>
</linearGradient>
<linearGradient id="paint10_linear" x1="110.061" y1="-0.0205688" x2="110.061" y2="193.096" gradientUnits="userSpaceOnUse">
<stop stop-color="#9200FC"/>
<stop offset="0.34375" stop-color="#7900D0"/>
<stop offset="0.671875" stop-color="#5B009D"/>
<stop offset="1" stop-color="#47007A"/>
</linearGradient>
<clipPath id="clip0">
<rect width="203" height="193" fill="white"/>
</clipPath>
</defs>
</svg>
